<?xml version="1.0" encoding="UTF-8"?>
<svg width="284px" height="58px" viewBox="0 0 284 58" version="1.1" xmlns="http://www.w3.org/2000/svg" xmlns:xlink="http://www.w3.org/1999/xlink">
    <!-- Generator: Sketch 48.2 (47327) - http://www.bohemiancoding.com/sketch -->
    <title>logo/color</title>
    <desc>Created with Sketch.</desc>
    <defs></defs>
    <g id="Artboard" stroke="none" stroke-width="1" fill="none" fill-rule="evenodd" transform="translate(-120.000000, -151.000000)">
        <g id="Group-36">
            <g id="logo/color-d" transform="translate(120.000000, 150.000000)">
                <g id="SKYF_chain_logo" transform="translate(0.000000, 1.000000)">
                    <path d="M76.135544,21.81825 C76.1104909,22.5252289 76.3827848,23.2102574 76.8860104,23.70625 C77.4524803,24.2419993 78.1170764,24.6627418 78.8431088,24.94525 C79.7483304,25.3154678 80.6837573,25.6066329 81.6389637,25.8155 L84.9056995,26.612 C86.0142314,26.907 87.1178584,27.24625 88.2165803,27.62975 C89.2557278,27.995006 90.2445851,28.4906097 91.1595855,29.10475 C92.0459181,29.7300206 92.8133995,30.509317 93.4256995,31.40575 C94.0814585,32.4225453 94.4897327,33.5795453 94.6176166,34.7835 C94.7047826,35.4443746 94.7047826,36.1138754 94.6176166,36.77475 C94.507084,37.5192576 94.2785725,38.2412774 93.9407254,38.9135 C93.5591521,39.678063 93.0628853,40.3794623 92.4692228,40.99325 C91.7478524,41.7088897 90.9185598,42.3062049 90.0118135,42.76325 C88.862687,43.3255825 87.6460254,43.7370578 86.3919171,43.9875 C84.7602307,44.3201628 83.0979416,44.4783814 81.4329534,44.4595 C79.9585131,44.4671022 78.4847755,44.3932402 77.0184456,44.23825 C75.8347731,44.1314308 74.6657449,43.8990472 73.5309845,43.545 C72.645475,43.2772843 71.8172203,42.8471686 71.0882902,42.2765 C70.4820115,41.8024414 70.0435741,41.1458074 69.837513,40.40325 C69.5906258,39.7235752 69.8179436,38.9620496 70.3966839,38.53 C70.6415646,38.3336687 70.9287601,38.1973053 71.2354404,38.13175 C71.5246474,38.0645815 71.8220329,38.0397405 72.118342,38.058 C72.7207856,38.1326579 73.3162282,38.2559756 73.8988601,38.42675 L75.8559585,38.92825 C76.5475648,39.10525 77.3274611,39.25275 78.1515026,39.40025 C79.091747,39.5413281 80.0408031,39.6152643 80.9915026,39.6215 C82.0587688,39.6457873 83.1252754,39.546802 84.1699482,39.3265 C84.9857631,39.1607418 85.7703935,38.8670505 86.4949223,38.45625 C87.0857331,38.133625 87.5904358,37.673254 87.9664249,37.114 C88.2905407,36.5975523 88.4591466,35.9983468 88.4520207,35.38825 C88.4633412,34.7248852 88.1770771,34.0914416 87.6721244,33.6625 C87.0514658,33.1436864 86.3440241,32.7391866 85.5825907,32.46775 C84.6210396,32.1112835 83.6381031,31.8157017 82.6395855,31.58275 C81.5506736,31.332 80.4176166,31.05175 79.2551295,30.75675 C78.0926425,30.46175 76.9743005,30.1225 75.8706736,29.739 C74.8323162,29.3718755 73.843686,28.8763855 72.9276684,28.264 C72.0786617,27.7295731 71.3475722,27.0268622 70.7792746,26.199 C70.2017962,25.3249538 69.8993506,24.297278 69.9110881,23.249 C69.8750593,22.0780186 70.0649245,20.9110784 70.4702591,19.81225 C70.876745,18.7033864 71.5195098,17.6966794 72.3537824,16.86225 C73.2811781,15.938098 74.3812605,15.2063082 75.5910881,14.70875 C77.0754178,14.1092955 78.6558462,13.7844626 80.2557513,13.75 L81.8744041,13.75 C82.6248705,13.75 83.478342,13.75 84.4201036,13.85325 C85.3618653,13.9565 86.333057,14.045 87.3631088,14.222 C88.3040635,14.3762592 89.2230282,14.6436895 90.1001036,15.0185 C90.8709869,15.332469 91.5677356,15.8047714 92.1454922,16.405 C92.6912541,16.9797936 92.9829889,17.7507405 92.9548187,18.54375 C92.9537099,18.786487 92.929069,19.0285414 92.8812435,19.2665 C92.829891,19.480868 92.7174066,19.675621 92.557513,19.827 C92.3773306,19.9953499 92.1525218,20.1080214 91.9100518,20.1515 C91.5433172,20.2338934 91.1660524,20.2587725 90.7917098,20.22525 C90.2325389,20.22525 89.5703627,20.10725 88.7904663,19.98925 L86.3036269,19.63525 C85.4207254,19.5025 84.5083938,19.39925 83.5666321,19.296 C82.6478426,19.1965667 81.7243355,19.1473272 80.8002073,19.1485 C80.2335281,19.1481226 79.6677005,19.19251 79.1079793,19.28125 C78.5978228,19.3607705 78.1020512,19.5148249 77.6364767,19.7385 C77.2323685,19.9208443 76.8787813,20.1993231 76.6064249,20.54975 C76.2972328,20.8989812 76.1293017,21.3513689 76.135544,21.81825 Z" id="Shape" fill="#485155" fill-rule="nonzero"></path>
                    <path d="M106.065907,42.778 C106.072902,43.100158 105.944793,43.410491 105.712746,43.6335 C105.447712,43.8706929 105.137307,44.0513569 104.800415,44.1645 C104.4165,44.2872814 104.022594,44.3761209 103.623212,44.43 C103.232288,44.4742853 102.839394,44.4988995 102.44601,44.50375 C102.088394,44.5291703 101.72943,44.5291703 101.371813,44.50375 C101.106186,44.4830709 100.846712,44.4130467 100.606632,44.29725 C100.401475,44.1900615 100.236324,44.0193447 100.135751,43.8105 C100.026447,43.5598143 99.9761001,43.2872959 99.988601,43.014 L99.988601,15.638 C99.9287893,15.0789353 100.149243,14.5264924 100.577202,14.163 C101.134089,13.8112418 101.790069,13.65074 102.44601,13.70575 C102.870002,13.7040586 103.293365,13.7386003 103.711503,13.809 C104.111466,13.8736256 104.501924,13.9875733 104.87399,14.14825 C105.206727,14.2920902 105.499618,14.5148114 105.727461,14.79725 C105.953419,15.0703822 106.073579,15.416008 106.065907,15.77075 L106.065907,42.778 Z" id="Shape" fill="#485155" fill-rule="nonzero"></path>
                    <path d="M123.665078,38.72175 C124.043843,39.0801085 124.40246,39.4592757 124.739275,39.8575 C124.980809,40.1398609 125.192833,40.4462957 125.372021,40.772 C125.515356,41.0025158 125.61512,41.2575175 125.666321,41.52425 C125.713354,41.7523733 125.737997,41.9845638 125.739896,42.2175 C125.747044,42.5694142 125.671428,42.9180713 125.519171,43.23525 C125.383734,43.5034798 125.199016,43.7436824 124.974715,43.94325 C124.753848,44.1286928 124.498897,44.2689982 124.224249,44.35625 C123.961089,44.4562838 123.681642,44.5063037 123.400207,44.50375 C123.057249,44.5270311 122.713113,44.5270311 122.370155,44.50375 C122.058881,44.4718559 121.752568,44.402524 121.457824,44.29725 C121.139841,44.1725026 120.838372,44.0090253 120.560207,43.8105 C120.214661,43.5667472 119.885328,43.3006835 119.574301,43.014 L110.171399,34.164 C109.791568,33.8192988 109.451041,33.4334409 109.156062,33.0135 C108.932357,32.6693445 108.754282,32.2974722 108.626321,31.90725 C108.507683,31.538881 108.433578,31.1575712 108.405596,30.7715 C108.405596,30.388 108.405596,29.96025 108.405596,29.503 L108.405596,28.98675 C108.405596,28.51475 108.405596,28.10175 108.405596,27.7035 C108.435076,27.3176304 108.509147,26.9364958 108.626321,26.56775 C108.75748,26.1834768 108.935402,25.8168782 109.156062,25.47625 C109.46187,25.0604311 109.801474,24.6706851 110.171399,24.311 L119.574301,15.461 C119.885494,15.1699608 120.214791,14.8990002 120.560207,14.64975 C120.850148,14.4753161 121.149848,14.3177231 121.457824,14.17775 C122.324734,13.7627918 123.321757,13.7149485 124.224249,14.045 C124.49959,14.1377226 124.754429,14.2829759 124.974715,14.47275 C125.205595,14.6660715 125.391434,14.9077331 125.519171,15.18075 C125.674147,15.4969852 125.749908,15.8463127 125.739896,16.1985 C125.736502,16.4313481 125.711874,16.6633975 125.666321,16.89175 C125.610199,17.1570288 125.510761,17.4111976 125.372021,17.644 C125.192242,17.9647449 124.980225,18.2662285 124.739275,18.54375 C124.406825,18.9504986 124.047981,19.3348323 123.665078,19.69425 L114.438756,28.42625 C114.279796,28.5633072 114.154001,28.7347953 114.070881,28.92775 C114.051072,29.0399617 114.051072,29.1547883 114.070881,29.267 C114.049625,29.3840382 114.049625,29.5039618 114.070881,29.621 C114.154697,29.8177934 114.280226,29.9939509 114.438756,30.13725 L123.665078,38.72175 Z" id="Shape" fill="#485155" fill-rule="nonzero"></path>
                    <path d="M165.293886,14.00075 L182.951917,14.00075 C183.206045,14.0168372 183.450656,14.1036761 183.658238,14.2515 C183.870095,14.4028765 184.045963,14.5993095 184.173264,14.82675 C184.324725,15.0792867 184.438734,15.3525644 184.51171,15.638 C184.594177,15.9356624 184.633817,16.2436039 184.62943,16.5525 C184.665499,17.1205213 184.543221,17.6874023 184.276269,18.18975 C184.068329,18.5434754 183.754155,18.8222572 183.378653,18.98625 C182.978412,19.1365845 182.555254,19.216427 182.127876,19.22225 L168.251606,19.22225 L168.251606,26.435 L178.787565,26.435 L179.449741,26.435 L179.758756,26.435 C180.014194,26.4447221 180.262699,26.5209758 180.479793,26.65625 C180.711302,26.8012523 180.915527,26.9859905 181.083109,27.202 C181.250333,27.4485836 181.38395,27.7164522 181.480415,27.9985 C181.569677,28.3152125 181.614255,28.6428943 181.61285,28.972 C181.618726,29.3809638 181.56418,29.7885472 181.450984,30.1815 C181.362001,30.4785139 181.222621,30.7579358 181.038964,31.0075 C180.8781,31.2143169 180.671587,31.3809299 180.435648,31.49425 C180.209267,31.598283 179.963632,31.6535567 179.714611,31.6565 L168.251606,31.6565 L168.251606,42.91075 C168.265519,43.2090836 168.171457,43.5024148 167.986736,43.73675 C167.800104,43.9506003 167.562032,44.1130772 167.29513,44.20875 C166.984328,44.3286252 166.656525,44.3983246 166.323938,44.41525 C165.956062,44.41525 165.602902,44.41525 165.235026,44.41525 C164.86715,44.41525 164.425699,44.41525 164.057824,44.41525 C163.731784,44.3773713 163.410976,44.3031626 163.101347,44.194 C162.835452,44.1045438 162.6006,43.9407801 162.424456,43.722 C162.252693,43.4873431 162.164592,43.2016313 162.174301,42.91075 L162.174301,16.5525 C162.163383,16.4446101 162.163383,16.3358899 162.174301,16.228 C162.225058,15.9854517 162.298973,15.7483598 162.395026,15.52 C162.515476,15.2462515 162.69078,15.0002437 162.910052,14.79725 C163.173203,14.550475 163.483577,14.359794 163.822383,14.23675 C164.28969,14.0508926 164.792056,13.9703231 165.293886,14.00075 Z" id="Shape" fill="#485155" fill-rule="nonzero"></path>
                    <path d="M28.385285,57.30675 C13.7298365,57.298068 1.49294868,46.1018137 0.150718147,31.4732706 C-1.19151238,16.8447276 8.80271749,3.59896671 23.2107277,0.910898527 C37.618738,-1.77716965 51.6980472,6.97724831 55.6963731,21.11025 C56.015407,22.0817563 55.7750309,23.1504197 55.0709616,23.8907026 C54.3668923,24.6309854 53.3134555,24.9226817 52.3301258,24.6496391 C51.346796,24.3765964 50.5932449,23.5831511 50.3695337,22.58525 C47.7268454,13.2872865 39.5449407,6.65347702 29.9215583,6.00622854 C20.2981759,5.35898006 11.3054693,10.8376613 7.44725062,19.6983874 C3.58903191,28.5591136 5.69607153,38.89395 12.713102,45.5269064 C19.7301326,52.1598629 30.1462127,53.6626989 38.7446632,49.28275 C40.08844,48.7158038 41.6409105,49.2852884 42.3021938,50.5877404 C42.9634771,51.8901924 42.5090813,53.4834561 41.2609326,54.23875 C37.2703569,56.2645757 32.8584431,57.3158434 28.385285,57.30675 Z" id="Shape" fill="#FFCB1B" fill-rule="nonzero"></path>
                    <path d="M49.2511917,46.5835 C48.6718812,46.5800338 48.1073327,46.3999778 47.6325389,46.06725 C46.3957166,45.1685963 46.1074159,43.4412485 46.9850777,42.188 C48.7321689,39.7276511 49.9773365,36.9456812 50.6491192,34.00175 C51.054325,32.5764654 52.5012411,31.7181172 53.9426809,32.0479235 C55.3841207,32.3777298 56.3161605,33.7803912 56.0642487,35.24075 C55.2283224,38.901651 53.6779978,42.360575 51.5025907,45.41825 C50.9808633,46.1448095 50.1442514,46.5778123 49.2511917,46.5835 Z" id="Shape" fill="#FFCB1B" fill-rule="nonzero"></path>
                    <path d="M42.1291192,34.53275 C41.9429822,34.5465277 41.7560851,34.5465277 41.5699482,34.53275 C40.84897,34.3838478 40.2169269,33.9530556 39.8137123,33.335723 C39.4104978,32.7183905 39.269366,31.9654305 39.4215544,31.2435 C39.8754922,28.9903843 39.6448294,26.6525838 38.7593782,24.53225 C38.1661157,23.1188843 38.8282239,21.4910476 40.2382383,20.896375 C41.6482528,20.3017024 43.2722297,20.9653843 43.8654922,22.37875 C45.1806061,25.5342062 45.52396,29.011864 44.851399,32.3645 C44.5571982,33.6337381 43.4290764,34.5322681 42.1291192,34.53275 Z" id="Shape" fill="#FFCB1B" fill-rule="nonzero"></path>
                    <path d="M28.4735751,45.787 C25.4086225,45.7780226 22.4033357,44.9369889 19.7769948,43.35325 C12.744191,39.1302703 9.76458122,30.4461392 12.7182491,22.780397 C15.6719171,15.1146548 23.7014343,10.6926107 31.7403109,12.3045 C32.7102592,12.5021125 33.5013534,13.2034052 33.8155959,14.1442078 C34.1298384,15.0850104 33.9194883,16.1223927 33.2637824,16.8655828 C32.6080765,17.6087729 31.6066323,17.9448626 30.6366839,17.74725 C25.8833609,16.8017121 21.0570262,18.9950425 18.6340916,23.2018346 C16.211157,27.4086267 16.7295348,32.6949361 19.9232435,36.3483365 C23.1169521,40.0017368 28.2769605,41.2111414 32.7556477,39.356 C34.1656621,38.7572543 35.7929331,39.4176343 36.3902591,40.831 C36.9875851,42.2443657 36.3287709,43.8755043 34.9187565,44.47425 C32.880533,45.3426099 30.6882597,45.7891306 28.4735751,45.787 Z" id="Shape" fill="#FFCB1B" fill-rule="nonzero"></path>
                    <path d="M33.0352332,28.8835 C33.0352332,26.3093008 30.9533804,24.2225 28.385285,24.2225 C25.8171895,24.2225 23.7353368,26.3093008 23.7353368,28.8835 C23.7353368,31.4576992 25.8171895,33.5445 28.385285,33.5445 C30.9433958,33.5204966 33.0112867,31.4476909 33.0352332,28.8835 Z" id="Shape" fill="#FFCB05"></path>
                    <path d="M141.396684,22.73275 L136.11399,15.77075 C135.878549,15.461 135.643109,15.18075 135.422383,14.93 C135.212647,14.6844916 134.964084,14.4752027 134.686632,14.3105 C134.390849,14.1278346 134.068003,13.9934106 133.730155,13.91225 C133.293704,13.828969 132.850066,13.7894408 132.405803,13.79425 C131.786925,13.7677626 131.173633,13.92145 130.64,14.23675 C130.226583,14.5085608 129.911763,14.9069013 129.742383,15.3725 C129.604987,15.8545221 129.604987,16.3654779 129.742383,16.8475 C129.896945,17.4288397 130.195589,17.9615887 130.61057,18.39625 L137.835648,27.24625 C138.341304,27.6198884 139.049466,27.5359977 139.454301,27.0545 C140.145907,26.199 140.925803,25.09275 141.470259,24.41425 C142.014715,23.73575 141.396684,22.73275 141.396684,22.73275 Z" id="Shape" fill="#485155" fill-rule="nonzero"></path>
                    <path d="M157.745078,15.35775 C157.575698,14.8921513 157.260878,14.4938108 156.847461,14.222 C156.315486,13.9026636 155.700968,13.7486691 155.081658,13.7795 C154.642264,13.7745875 154.203497,13.814121 153.772021,13.8975 C153.428677,13.9759174 153.100558,14.1104671 152.800829,14.29575 C152.521994,14.4646318 152.269185,14.6733223 152.050363,14.91525 C151.829637,15.166 151.608912,15.44625 151.373472,15.756 L142.191295,27.9395 C142.191295,27.9395 140.719793,29.4145 140.719793,33.1905 L140.719793,42.955 C140.703539,43.2421881 140.792499,43.5254375 140.969948,43.7515 C141.140124,43.9734459 141.369793,44.14227 141.632124,44.23825 C141.944959,44.3511082 142.271713,44.4205843 142.603316,44.44475 C142.995365,44.4682887 143.388469,44.4682887 143.780518,44.44475 L144.86943,44.44475 C145.200592,44.4175158 145.526948,44.3481244 145.840622,44.23825 C146.103432,44.1427333 146.336773,43.9800232 146.517513,43.76625 C146.713877,43.537582 146.814101,43.2414821 146.797098,42.94025 L146.797098,32.217 C146.819916,31.9122857 146.874161,31.61076 146.958964,31.31725 C147.073146,30.9716073 147.215886,30.6361114 147.385699,30.31425 C147.62149,29.885799 147.897414,29.4808075 148.209741,29.10475 L156.906321,18.30775 C157.321302,17.8730887 157.619946,17.3403397 157.774508,16.759 C157.895368,16.2983187 157.885174,15.8129244 157.745078,15.35775 Z" id="Shape" fill="#485155" fill-rule="nonzero"></path>
                    <path d="M197.563938,44.489 C196.408535,44.5062791 195.254493,44.4024652 194.120622,44.17925 C193.276426,44.0241773 192.465099,43.7248197 191.722073,43.29425 C191.133297,42.9120929 190.631821,42.409425 190.25057,41.81925 C189.862513,41.2191345 189.569638,40.5623314 189.382383,39.87225 C189.177938,39.0800433 189.04982,38.2699958 188.999793,37.45325 C188.999793,36.56825 188.999793,34.50325 188.999793,33.6035 C189.051012,32.7820309 189.179105,31.9672013 189.382383,31.16975 C189.576142,30.4820144 189.868595,29.8261588 190.25057,29.22275 C190.630769,28.6317234 191.132447,28.128853 191.722073,27.74775 C192.458453,27.3111884 193.265151,27.0067096 194.105907,26.848 C195.246263,26.6371207 196.404431,26.5383189 197.563938,26.553 C198.609349,26.5381767 199.653827,26.6221311 200.683523,26.80375 C201.48402,26.9370012 202.268257,27.1545387 203.023212,27.45275 C203.572719,27.6568114 204.073844,27.9732707 204.494715,28.382 C204.798279,28.65491 204.983154,29.0361281 205.009741,29.444 C205.023769,29.5319414 205.023769,29.6215586 205.009741,29.7095 C204.977775,29.8082258 204.933264,29.9024164 204.877306,29.98975 C204.801554,30.087104 204.706318,30.1674931 204.59772,30.22575 C204.448981,30.2889993 204.288335,30.319192 204.126839,30.31425 C203.975236,30.3094903 203.827758,30.2636124 203.700104,30.1815 L203.140933,29.857 C202.934922,29.739 202.670052,29.5915 202.361036,29.444 C201.976378,29.2758764 201.577481,29.1425948 201.169119,29.04575 C200.608233,28.9081857 200.037536,28.8144874 199.462176,28.7655 C198.67949,28.6942567 197.893583,28.6647152 197.107772,28.677 C196.337698,28.685025 195.569719,28.7590446 194.812228,28.89825 C194.1462,29.0067957 193.521275,29.2919905 193.00228,29.72425 C192.432981,30.2350541 192.01543,30.8934947 191.795648,31.627 C191.462364,32.7306435 191.313207,33.8818841 191.354197,35.03425 C191.31335,36.1337662 191.372454,37.2347269 191.530777,38.3235 C191.650578,39.0712051 191.90486,39.7908837 192.281244,40.4475 C192.698165,41.0923513 193.290456,41.6041609 193.988187,41.9225 C194.92364,42.2945289 195.925291,42.4702344 196.931192,42.43875 C197.881231,42.4434972 198.83037,42.3794136 199.771192,42.247 C200.589942,42.1394616 201.394337,41.941595 202.169741,41.657 C202.39168,41.5599894 202.603607,41.4414234 202.802487,41.303 L203.288083,40.93425 L203.685389,40.654 C203.800214,40.5813342 203.932263,40.5406072 204.067979,40.536 C204.339733,40.4629 204.629448,40.5483128 204.818446,40.75725 C204.942563,40.9336363 205.004678,41.1463685 204.995026,41.362 C204.965477,41.7775674 204.781734,42.1669747 204.48,42.4535 C204.060946,42.882624 203.560678,43.2236149 203.008497,43.4565 C202.257013,43.7816346 201.472514,44.023973 200.668808,44.17925 C199.645953,44.3806924 198.606338,44.4844071 197.563938,44.489 Z" id="Shape" fill="#485155" fill-rule="nonzero"></path>
                    <path d="M212.014093,43.73675 C212.03543,43.9977884 211.878158,44.2403203 211.631503,44.32675 C211.356701,44.4196884 211.068008,44.464592 210.778031,44.4595 C210.492941,44.4634861 210.20927,44.4185894 209.939275,44.32675 C209.692619,44.2403203 209.535347,43.9977884 209.556684,43.73675 L209.556684,19.178 C209.537252,18.9129499 209.701488,18.6690591 209.95399,18.588 C210.504218,18.4108215 211.095989,18.4108215 211.646218,18.588 C211.883789,18.6835577 212.032507,18.9220717 212.014093,19.178 L212.014093,27.8805 C213.080615,27.3429915 214.229676,26.9889775 215.413264,26.83325 C216.93277,26.604573 218.467868,26.4960716 220.004352,26.50875 C221.267084,26.4585932 222.524762,26.6955987 223.683109,27.202 C224.608773,27.6491326 225.389311,28.3497066 225.934508,29.22275 C226.513227,30.2163926 226.893096,31.3136172 227.05285,32.453 C227.257422,33.8694612 227.355797,35.2992991 227.34715,36.7305 L227.34715,43.82525 C227.356105,43.9517953 227.319565,44.0773726 227.244145,44.17925 C227.178957,44.2702883 227.085987,44.3375931 226.979275,44.371 C226.853354,44.4246108 226.71869,44.4546075 226.581969,44.4595 L226.140518,44.4595 C225.846936,44.4627264 225.554456,44.4229739 225.272332,44.3415 C225.036909,44.2711624 224.88726,44.0399051 224.919171,43.79575 L224.919171,38.22025 C224.919171,36.50925 224.919171,35.049 224.742591,33.79525 C224.684661,32.7489505 224.43004,31.7230417 223.992124,30.7715 C223.644049,30.015154 223.053537,29.3972782 222.314611,29.01625 C221.389996,28.6039779 220.382637,28.4121247 219.371606,28.45575 C218.354237,28.4436095 217.33706,28.4928652 216.325596,28.60325 C215.624625,28.6655813 214.930398,28.7889637 214.250777,28.972 C213.793721,29.0788763 213.356592,29.258127 212.955855,29.503 C212.686632,29.6676793 212.451773,29.883061 212.264249,30.13725 C212.123387,30.3390854 212.032584,30.5716881 211.999378,30.81575 C211.985802,31.0220258 211.985802,31.2289742 211.999378,31.43525 L212.014093,43.73675 Z" id="Shape" fill="#485155" fill-rule="nonzero"></path>
                    <path d="M256.468187,19.22225 C256.44685,18.9612116 256.604122,18.7186797 256.850777,18.63225 C257.125334,18.5367383 257.413635,18.4869131 257.704249,18.48475 C257.995207,18.4828821 258.284185,18.5328242 258.55772,18.63225 C258.802015,18.7195933 258.954322,18.9638629 258.925596,19.22225 L258.925596,22.49675 C258.941827,22.7564702 258.786386,22.9961788 258.543005,23.08675 C258.27301,23.1785894 257.989338,23.2234861 257.704249,23.2195 C257.414448,23.2220891 257.126168,23.1772497 256.850777,23.08675 C256.607396,22.9961788 256.451955,22.7564702 256.468187,22.49675 L256.468187,19.22225 Z M258.925596,43.73675 C258.954322,43.9951371 258.802015,44.2394067 258.55772,44.32675 C258.282648,44.4185733 257.994147,44.4634471 257.704249,44.4595 C257.414448,44.4620891 257.126168,44.4172497 256.850777,44.32675 C256.604122,44.2403203 256.44685,43.9977884 256.468187,43.73675 L256.468187,27.261 C256.444457,26.9981841 256.611727,26.7559975 256.865492,26.68575 C257.133453,26.5845772 257.417933,26.5345499 257.704249,26.53825 C257.99575,26.5292428 258.286058,26.5794149 258.55772,26.68575 C258.799743,26.7673111 258.952709,27.0065053 258.925596,27.261 L258.925596,43.73675 Z" id="Shape" fill="#485155" fill-rule="nonzero"></path>
                    <path d="M267.798756,43.82525 C267.803533,43.9536396 267.761709,44.0794112 267.681036,44.17925 C267.60696,44.2674506 267.510301,44.3337433 267.401451,44.371 C267.280647,44.424472 267.150824,44.4545023 267.01886,44.4595 L266.577409,44.4595 C266.288791,44.4606994 266.001455,44.4209726 265.723938,44.3415 C265.476706,44.2832835 265.312209,44.048634 265.341347,43.79575 L265.341347,29.60625 C265.324771,28.9257447 265.65111,28.2826036 266.209534,27.89525 C266.907801,27.4297865 267.694224,27.1134656 268.519793,26.966 C269.615704,26.7429955 270.727911,26.6098055 271.845389,26.56775 C273.110881,26.56775 274.420518,26.47925 275.789016,26.47925 C277.05186,26.4275474 278.309881,26.6646174 279.467772,27.1725 C280.393436,27.6196326 281.173974,28.3202066 281.719171,29.19325 C282.29789,30.1868926 282.67776,31.2841172 282.837513,32.4235 C283.042085,33.8399612 283.140461,35.2697991 283.131813,36.701 L283.131813,43.79575 C283.140768,43.9222953 283.104228,44.0478726 283.028808,44.14975 C282.96362,44.2407883 282.87065,44.3080931 282.763938,44.3415 C282.643134,44.394972 282.513311,44.4250023 282.381347,44.43 L281.925181,44.43 C281.636456,44.4328463 281.348885,44.393087 281.07171,44.312 C280.83039,44.2476059 280.673395,44.0147014 280.703834,43.76625 L280.703834,38.19075 C280.703834,36.47975 280.703834,35.0195 280.541969,33.76575 C280.472624,32.7195534 280.213313,31.6948368 279.776788,30.742 C279.42969,29.989871 278.845391,29.3730845 278.11399,28.98675 C277.188427,28.5775233 276.181782,28.3858062 275.170984,28.42625 C273.964352,28.42625 272.949016,28.42625 272.110259,28.5 C271.415608,28.5335333 270.723107,28.6024556 270.03544,28.7065 C269.593181,28.7740203 269.159179,28.8877222 268.740518,29.04575 C268.488603,29.1345502 268.258026,29.2752348 268.063627,29.45875 C267.921122,29.5990092 267.82375,29.7788048 267.784041,29.975 C267.768891,30.1565997 267.768891,30.3391503 267.784041,30.52075 L267.798756,43.82525 Z" id="Shape" fill="#485155" fill-rule="nonzero"></path>
                    <path d="M250.09658,39.0905 C250.09658,36.71575 250.170155,32.49725 250.170155,32.49725 C250.186907,31.7357284 250.051833,30.9785163 249.77285,30.27 C249.523872,29.661159 249.147536,29.1129165 248.669223,28.66225 C248.185125,28.2079538 247.627919,27.838925 247.02114,27.57075 C246.369471,27.2819272 245.68865,27.0643377 244.990466,26.92175 C244.248851,26.7589609 243.496395,26.6505075 242.739067,26.59725 C241.973886,26.53825 241.208705,26.50875 240.443523,26.50875 C238.119032,26.2793914 235.841798,27.2728171 234.425078,29.13425 C232.679815,31.9818098 232.070265,35.3844422 232.718135,38.66275 C232.84035,39.7336312 233.180943,40.7678826 233.718756,41.70125 C234.248782,42.579766 235.020244,43.2864865 235.940725,43.73675 C236.837175,44.1569727 237.806932,44.3974828 238.79544,44.44475 C239.427755,44.4778706 240.061364,44.4778706 240.693679,44.44475 C243.394923,44.571596 246.037589,43.6285708 248.051192,41.81925 C248.051192,42.43875 248.051192,44.2825 249.77285,44.4005 C249.90801,44.4070038 250.041807,44.3708959 250.15544,44.29725 C250.262153,44.2638431 250.355123,44.1965383 250.420311,44.1055 C250.539026,43.9548744 250.619785,43.7777935 250.655751,43.58925 C250.655751,43.58925 250.09658,42.896 250.09658,39.0905 Z M238.883731,42.35025 L238.192124,42.247 C237.52181,42.0924335 236.909302,41.7496368 236.426321,41.25875 C235.916025,40.6458587 235.540013,39.9322508 235.322694,39.16425 C235.064121,38.2024927 234.935443,37.2103091 234.940104,36.21425 C234.918606,35.1591861 235.017346,34.1051111 235.234404,33.0725 C235.397898,32.3236017 235.670603,31.602943 236.043731,30.93375 C236.325952,30.409064 236.717382,29.95131 237.191503,29.5915 C237.61178,29.2791586 238.07859,29.0352429 238.574715,28.86875 C239.05129,28.7102959 239.545503,28.6112183 240.046218,28.57375 L241.42943,28.57375 C242.293006,28.5616272 243.155639,28.635743 244.00456,28.795 C244.615705,28.915943 245.209053,29.1141957 245.770363,29.385 C246.187136,29.5941152 246.561397,29.8792293 246.87399,30.22575 C247.120366,30.5115137 247.319121,30.8352587 247.462591,31.1845 C247.589326,31.4953302 247.668694,31.8235019 247.698031,32.158 C247.717544,32.4477536 247.717544,32.7384964 247.698031,33.02825 L247.698031,38.01375 C247.726442,38.7108242 247.50747,39.3954335 247.08,39.946 C244.872746,42.365 240.914404,42.55675 238.883731,42.35025 Z" id="Shape" fill="#485155" fill-rule="nonzero"></path>
                </g>
            </g>
        </g>
    </g>
</svg>