<svg id="Livello_1" data-name="Livello 1" xmlns="http://www.w3.org/2000/svg" xmlns:xlink="http://www.w3.org/1999/xlink" viewBox="0 0 224.24 55.05"><defs><style>.cls-1{fill:#939598;}.cls-2{fill:#62c3a5;}.cls-3{fill:#53c8e4;}.cls-4{fill:url(#Sfumatura_senza_nome_53);}</style><linearGradient id="Sfumatura_senza_nome_53" x1="23.84" x2="23.84" y2="55.05" gradientUnits="userSpaceOnUse"><stop offset="0" stop-color="#009fba"/><stop offset="1" stop-color="#62c3a5"/></linearGradient></defs><path class="cls-1" d="M376,308.18V287.48h6.14v20.69ZM404.18,291l-3.54,4.19a6.74,6.74,0,0,0-4.93-2.75,5.34,5.34,0,0,0,0,10.66,7.49,7.49,0,0,0,4.93-2.39l3.54,3.78a12.51,12.51,0,0,1-8.77,4c-6.29,0-10.92-4.55-10.92-10.66s4.72-10.48,11.13-10.48A12.17,12.17,0,0,1,404.18,291Zm22.91,6.85c0,6.08-4.78,10.63-11.28,10.63s-11.28-4.52-11.28-10.63,4.78-10.51,11.28-10.51S427.08,291.76,427.08,297.81Zm-16.27,0a5.27,5.27,0,0,0,5.08,5.46c2.72,0,4.9-2.33,4.9-5.46s-2.18-5.4-4.9-5.4A5.19,5.19,0,0,0,410.82,297.84Zm39.5,3.45H437.62a5.45,5.45,0,0,0,5.64,5,6.49,6.49,0,0,0,4.81-1.95l1.27,1.36a8.17,8.17,0,0,1-6.26,2.6,7.85,7.85,0,0,1,0-15.71C448.07,292.53,450.55,296,450.31,301.3Zm-2.07-1.89a4.85,4.85,0,0,0-5.2-4.87,5.25,5.25,0,0,0-5.43,4.87Zm20.25-.83v9.59h-2.3v-9a4,4,0,0,0-4.4-4.37,5.05,5.05,0,0,0-5.23,5v8.35h-2.3V292.62h2.3V296c1.09-2.36,3.19-3.48,6-3.51C466.31,292.53,468.49,294.83,468.49,298.58Zm18.68,8c0,4.55-3.1,7.41-7.82,7.41a10.47,10.47,0,0,1-6.38-2.24l1.06-1.77a8,8,0,0,0,5.23,2c3.39,0,5.61-2.07,5.61-5.31v-2.36a6.13,6.13,0,0,1-5.73,3.25c-4.19,0-7.09-3.1-7.09-7.53s2.86-7.41,7-7.44a6.22,6.22,0,0,1,5.79,3.25v-3.16h2.3Zm-2.3-6.49a5.33,5.33,0,1,0-5.31,5.49A5.2,5.2,0,0,0,484.88,300.06ZM495,288.16a1.51,1.51,0,1,1-1.51-1.59A1.52,1.52,0,0,1,495,288.16Zm-2.63,20V292.62h2.27v15.56Zm22.11-9.59v9.59h-2.3v-9a4,4,0,0,0-4.4-4.37,5.05,5.05,0,0,0-5.23,5v8.35h-2.3V292.62h2.3V296c1.09-2.36,3.19-3.48,6-3.51C512.33,292.53,514.51,294.83,514.51,298.58ZM533,301.3H520.36a5.45,5.45,0,0,0,5.64,5,6.49,6.49,0,0,0,4.81-1.95l1.27,1.36a8.17,8.17,0,0,1-6.26,2.6,7.85,7.85,0,0,1,0-15.71C530.81,292.53,533.29,296,533,301.3ZM531,299.41a4.85,4.85,0,0,0-5.2-4.87,5.25,5.25,0,0,0-5.43,4.87Z" transform="translate(-308.83 -270.11)"/><polygon class="cls-2" points="0 13.76 0 27.52 11.92 34.41 11.91 20.64 0 13.76"/><path class="cls-3" d="M332.71,311.57" transform="translate(-308.83 -270.11)"/><polygon class="cls-4" points="11.91 20.64 0 13.76 23.84 0 47.68 13.76 47.68 41.29 23.84 55.05 12.04 48.24 23.79 41.46 35.67 34.6 35.67 20.61 23.74 13.81 11.91 20.64"/><polygon class="cls-2" points="18.89 24.67 18.89 30.38 23.84 33.24 28.79 30.38 28.79 24.67 23.84 21.81 18.89 24.67"/><path class="cls-1" d="M381.7,314.77c2.26,0,3.68,1,3.68,2.57a2.26,2.26,0,0,1-1.78,2.26,2.52,2.52,0,0,1,2.15,2.6c0,1.76-1.48,2.85-3.88,2.85H377V314.77Zm-2.41,4.15h2.29c.87,0,1.41-.43,1.41-1.15s-.54-1.1-1.41-1.1h-2.29Zm0,4.25h2.29c1.1,0,1.76-.46,1.76-1.25s-.66-1.21-1.76-1.21h-2.29Z" transform="translate(-308.83 -270.11)"/><path class="cls-1" d="M394.67,321.8H389a2,2,0,0,0,2,1.59,2.81,2.81,0,0,0,2-.84l1.19,1.21a4.41,4.41,0,0,1-3.38,1.4,4,4,0,1,1-.06-8.07C393.57,317.08,394.86,318.92,394.67,321.8Zm-2.12-1.34a1.65,1.65,0,0,0-1.75-1.72,1.86,1.86,0,0,0-1.85,1.72Z" transform="translate(-308.83 -270.11)"/><path class="cls-1" d="M401.07,324.62a4.22,4.22,0,0,1-2.06.54,2.28,2.28,0,0,1-2.48-2.44v-3.66h-1.1v-1.56h1.1v-2.18h2.25v2.18h2.15v1.57h-2.15v3.26c0,.66.28.93.76.91a2.64,2.64,0,0,0,1.06-.29Z" transform="translate(-308.83 -270.11)"/><path class="cls-1" d="M407,324.14a3,3,0,0,1-2.48,1,2.45,2.45,0,0,1-2.72-2.47c0-1.49,1.07-2.37,3-2.38H407v-.15c0-.84-.56-1.32-1.65-1.32a5,5,0,0,0-2.35.69l-.71-1.56a7.42,7.42,0,0,1,3.57-.91c2.12,0,3.34,1.06,3.35,2.84v5.16H407Zm0-1.78v-.71h-1.78c-.87,0-1.29.26-1.29.9s.47,1,1.23,1A1.75,1.75,0,0,0,407,322.36Z" transform="translate(-308.83 -270.11)"/></svg>