<svg xmlns="http://www.w3.org/2000/svg" width="151.11" height="39.88" viewBox="0 0 151.11 39.88">
  <title>logo</title>
  <path d="M20.65.2a12.11,12.11,0,0,1,3.07,23.52L35.86,40H0V.12H18.84C19.5.12,20.1.15,20.65.2Z" transform="translate(0.04 -0.12)" style="fill: #157eff"/>
  <polygon points="23.38 39.88 0 39.88 0 0 35.65 39.88 23.38 39.88" style="fill: #157eff"/>
  <polygon points="35.9 39.88 0 39.88 17.83 12.03 35.9 39.88" style="fill: #00bdff"/>
  <polygon points="0 23.08 0 0 10.02 0 24.99 23.07 0 23.08" style="fill: #1560fa"/>
  <polygon points="10.76 23.08 17.83 12.03 25 23.08 10.76 23.08" style="fill: #00efe9"/>
  <polygon points="35.9 39.88 22.56 39.88 17.83 12.03 35.9 39.88" style="fill: #157eff;fill-opacity: 0.5"/>
  <path d="M53.27,13.74v4.42h2.58c2,0,2.92-1,2.89-2.24s-1-2.18-2.89-2.18H53.27Zm2.65-3.31c3.81,0,6.31,2.3,6.31,5.49s-1.72,4.92-3.67,5.32l4,7.23h-4l-3.7-6.77H53.27v6.77h-3.6v-18Z" transform="translate(0.04 -0.12)"/>
  <path d="M67.81,21h5.54a2.78,2.78,0,0,0-5.54,0m8.92,1.16a9.62,9.62,0,0,1-.06,1.13H67.8A3,3,0,0,0,71,25.93a5.07,5.07,0,0,0,3.16-1.2l2,2.17a7.6,7.6,0,0,1-5.33,1.89,6.18,6.18,0,0,1-6.5-6.54c0-3.93,2.58-6.61,6.33-6.61s6.07,2.67,6.08,6.56" transform="translate(0.04 -0.12)"/>
  <path d="M82.87,22.22a3.23,3.23,0,1,0,6.44,0,3.23,3.23,0,1,0-6.44,0m9.9,0c0,3.75-2.61,6.57-6.06,6.57A4.58,4.58,0,0,1,83,27.17v6.46H79.68V16H83v1.38a4.54,4.54,0,0,1,3.73-1.71c3.46,0,6.07,2.82,6.07,6.57" transform="translate(0.04 -0.12)"/>
  <path d="M107.17,23.15c0,3.94-2.79,5.65-5.91,5.65s-5.93-1.7-5.93-5.65V16h3.37v6.87c0,2,1.1,2.81,2.56,2.81s2.56-.81,2.56-2.81V16h3.36Z" transform="translate(0.04 -0.12)"/>
  <path d="M113.7,22.22a3.23,3.23,0,1,0,6.44,0,3.23,3.23,0,1,0-6.44,0m9.9,0c0,3.75-2.61,6.57-6.06,6.57a4.57,4.57,0,0,1-3.75-1.7v1.38h-3.29V9.91h3.36v7.37a4.52,4.52,0,0,1,3.67-1.64c3.46,0,6.07,2.82,6.07,6.57" transform="translate(0.04 -0.12)"/>
  <polygon points="126.39 28.35 129.76 28.35 129.76 9.79 126.39 9.79 126.39 28.35"/>
  <path d="M133.26,28.47h3.37V16h-3.37Zm3.82-16.58a2.15,2.15,0,1,1-2.16-2.17,2.14,2.14,0,0,1,2.16,2.17Z" transform="translate(0.04 -0.12)"/>
  <path d="M151.06,18l-2.43,2A3.47,3.47,0,0,0,146,18.78a3.19,3.19,0,0,0-3.14,3.44,3.17,3.17,0,0,0,3.13,3.44,3.66,3.66,0,0,0,2.72-1.26l2.4,2a6.17,6.17,0,0,1-5,2.35,6.34,6.34,0,0,1-6.66-6.57,6.35,6.35,0,0,1,6.66-6.57,6.12,6.12,0,0,1,5,2.36" transform="translate(0.04 -0.12)"/>
</svg>
