<svg height='200' width='200'  fill="#edeff1" xmlns="http://www.w3.org/2000/svg" xmlns:xlink="http://www.w3.org/1999/xlink" version="1.1" x="0px" y="0px" viewBox="0 0 100 100" enable-background="new 0 0 100 100" xml:space="preserve"><path d="M85.4441452,24H14.5558577c-1.8001318,0-3.2643757,1.4642429-3.2643757,3.2643757v45.4712524  C11.291482,74.535759,12.7557259,76,14.5558577,76h70.8882904c1.8001328,0,3.2643738-1.464241,3.2643738-3.2643738V27.2643757  C88.708519,25.4642429,87.244278,24,85.4441452,24z M86.843483,72.7356262c0,0.7714005-0.6279373,1.3993454-1.3993378,1.3993454  H14.5558577c-0.7714043,0-1.3993435-0.6279449-1.3993435-1.3993454V27.2643757c0-0.7714043,0.6279392-1.3993435,1.3993435-1.3993435  h70.8882904c0.7714005,0,1.3993378,0.6279392,1.3993378,1.3993435V72.7356262z M80.8054733,32.3846741H34.7512589v-1.9823093  h46.0542145V32.3846741z M19.1734619,67.9534912h18.4926224v2.3318634H19.1734619V67.9534912z M80.4695892,43.9079056H64.1283569  c-1.2854843,0-2.3318596,1.0463753-2.3318596,2.3318596v21.9488487c0,1.2854843,1.0463753,2.3318558,2.3318596,2.3318558h2.7998199  h10.7413025h2.8001099c1.2854767,0,2.3318558-1.0463715,2.3318558-2.3318558V46.2397652  C82.801445,44.9542809,81.7550659,43.9079056,80.4695892,43.9079056z M81.4020996,68.1886139  c0,0.5140762-0.4184341,0.932518-0.9325104,0.932518h-2.0702667c-0.4261246-0.072876-0.7899094-0.1258163-1.0967636-0.1699371  c-1.2684021-0.1813202-1.5319901-0.2194672-2.014183-1.0959091c-0.0910873-0.1653824-0.1949921-0.5752792-0.1787643-1.5897751  c1.4221191-1.3389969,2.4070053-3.0705261,2.681694-4.1570358c0.5359955-0.0287514,1.3008575-0.6299324,1.4838867-1.3463974  c0.1710739-0.6717758,0.1221161-1.2271309-0.1383438-1.5641556c-0.1371994-0.1779099-0.3276291-0.2837982-0.555069-0.3099861  l0.0002899-0.0489616h-0.0663223c-0.036438-0.0626221-0.0674667-0.1337852-0.0936508-0.2154808  c0.0825424-0.6020355,0.1514282-1.2146034,0.2080765-1.8584824c0.0999146-0.4952927,0.2018204-1.0241737,0.2547607-1.568428  c0.0592117-0.6074448,0.0415573-1.1761742-0.0520859-1.6902542l0.0042648-0.1004829l-0.0199203-0.1397629l-0.0327377,0.0005684  c-0.0856781-0.3586578-0.2114944-0.6808853-0.3746033-0.9592705c-0.2547607-0.4352341-0.6065903-0.777668-0.8846893-1.0275917  c-1.1457214-1.0284424-2.5123291-1.7329521-3.9515228-2.037529c-0.7440796-0.1574135-1.8408356-0.3057137-2.7716446,0.2191811  c-0.6350555,0.3580894-1.3062668,0.8605003-2.049202,1.5348358c-1.0745544-0.1551323-2.3782578,0.825489-2.742897,1.5789604  c-0.2789536,0.5758476-0.5801163,1.2706795-0.6999512,2.0585938c-0.2698517,1.7662582,0.1067429,2.9421501,0.8172302,4.2558136  c-0.2021027,0.0270386-0.3737488,0.1178436-0.5049744,0.2687073c-0.2846451,0.3270645-0.3464203,0.9114532-0.1696472,1.6037254  c0.180748,0.7093468,0.9427643,1.3113861,1.4770508,1.3455429c0.3008728,1.2089119,1.3341599,2.8433762,2.5558777,4.0360641  c0.0267563,1.0998917-0.0805511,1.5379639-0.1759109,1.7116013c-0.4822006,0.876442-0.7463531,0.9145889-2.014473,1.0959091  c-0.3071365,0.0441208-0.6703568,0.0970612-1.0967636,0.1699371h-2.0699768c-0.51408,0-0.932518-0.4184418-0.932518-0.932518  V46.2397652c0-0.51408,0.418438-0.932518,0.932518-0.932518h16.3412323c0.5140762,0,0.9325104,0.418438,0.9325104,0.932518  V68.1886139z M34.7512589,59.7024651H46.410553v1.3993416H34.7512589V59.7024651z M54.4303055,39.6539421H34.7512589v-1.3993454  h19.6790466V39.6539421z M34.7512589,48.9785309h20.9867325v1.3993416H34.7512589V48.9785309z M34.7512589,54.3404961h20.4037666  v1.3993454H34.7512589V54.3404961z M34.7512589,43.6165657h21.0391083v1.3993416H34.7512589V43.6165657z M28.174118,52.8312798  c1.2860527,0,2.332428-1.0463791,2.332428-2.332428v-8.6374435c0-1.2854843-1.0463753-2.3318596-2.332428-2.3318596h-7.6599503  c-1.2860527,0-2.3324299,1.0463753-2.3324299,2.3318596v8.6374435c0,1.2860489,1.0463772,2.332428,2.3324299,2.332428H28.174118z   M19.5810814,50.4988518v-8.6374435c0-0.51408,0.4184361-0.932518,0.9330864-0.932518h7.6599503  c0.5146484,0,0.9330864,0.418438,0.9330864,0.932518v8.6374435c0,0.5146484-0.418438,0.9330826-0.9330864,0.9330826h-7.6599503  C19.9995174,51.4319344,19.5810814,51.0135002,19.5810814,50.4988518z"></path></svg>