<svg height='200' width='200'  fill="#edeff1" xmlns="http://www.w3.org/2000/svg" xmlns:xlink="http://www.w3.org/1999/xlink" version="1.1" x="0px" y="0px" viewBox="0 0 100 100" style="enable-background:new 0 0 100 100;" xml:space="preserve"><g><path d="M72.1,13.2H27.7c-2.6,0-4.8,2.1-4.8,4.8v65c0,2.6,2.1,4.8,4.8,4.8h44.4c2.6,0,4.8-2.1,4.8-4.8V18   C76.8,15.4,74.7,13.2,72.1,13.2z M75.3,83c0,1.8-1.5,3.2-3.2,3.2H27.7c-1.8,0-3.2-1.5-3.2-3.2V18c0-1.8,1.5-3.2,3.2-3.2h44.4   c1.8,0,3.2,1.5,3.2,3.2V83z"></path><path d="M49.9,30c-8.2,0-14.8,6.7-14.8,14.8s6.7,14.8,14.8,14.8S64.7,53,64.7,44.8S58.1,30,49.9,30z M49.9,31.6   c2.1,0,4.4,5.1,4.6,12.4h-9.2C45.5,36.7,47.8,31.6,49.9,31.6z M46.7,32c-1.7,2.4-2.9,6.8-3,12h-7C37.1,38.2,41.2,33.4,46.7,32z    M36.7,45.6h7c0.1,5.3,1.3,9.6,3,12C41.2,56.3,37.1,51.4,36.7,45.6z M49.9,58c-2.1,0-4.4-5.1-4.6-12.4h9.2C54.4,53,52,58,49.9,58z    M53.1,57.6c1.7-2.4,2.9-6.8,3-12h7C62.8,51.4,58.6,56.3,53.1,57.6z M56.1,44c-0.1-5.3-1.3-9.6-3-12c5.5,1.4,9.6,6.2,10,12H56.1z"></path><path d="M58.5,70.8H40.1c-0.4,0-0.8,0.3-0.8,0.8s0.3,0.8,0.8,0.8h18.4c0.4,0,0.8-0.3,0.8-0.8S58.9,70.8,58.5,70.8z"></path></g></svg>