<svg height='200' width='200'  fill="#edeff1" xmlns="http://www.w3.org/2000/svg" xmlns:xlink="http://www.w3.org/1999/xlink" version="1.1" x="0px" y="0px" viewBox="0 0 64 64" enable-background="new 0 0 64 64" xml:space="preserve"><rect x="25" y="58" width="2" height="2"></rect><rect x="29" y="58" width="2" height="2"></rect><path d="M53,0H11v26h12.553C23.202,26.603,23,27.283,23,28c0,1.068,0.416,2.073,1.172,2.828C24.927,31.584,25.932,32,27,32  c0,2.443-0.647,4.729-1.823,6.434C23.773,40.467,23,43.154,23,46v8h-2v10h2v-8h21v8h2V54h-4v-4.838l4.08-12.239L40.618,26H53V0z   M51,2v2H13V2H51z M25.586,29.414C25.208,29.036,25,28.534,25,28s0.208-1.036,0.586-1.414S26.466,26,27,26v4  C26.466,30,25.964,29.792,25.586,29.414z M43.92,37.077L40,48.838V54H25v-8c0-2.443,0.647-4.729,1.823-6.434  C28.227,37.533,29,34.846,29,32v-7c0-1.566,0.755-5,3-5c2,0,2,4.516,2,6v6c0,3.243,1.725,6.257,4.498,7.865l1.004-1.73  C37.342,36.883,36,34.532,36,32v-6h2.382L43.92,37.077z M35.947,24c-0.166-2.581-0.879-6-3.947-6c-3.219,0-4.651,3.352-4.941,6H27  H13V6h38v18H35.947z"></path><rect x="27" y="8" width="12" height="2"></rect><rect x="41" y="8" width="8" height="2"></rect><rect x="27" y="12" width="18" height="2"></rect><rect x="15" y="20" width="10" height="2"></rect><path d="M15,18h10V8H15V18z M17,10h6v6h-6V10z"></path><rect x="19" y="12" width="2" height="2"></rect></svg>