<svg height='200' width='200'  fill="#8980fe" xmlns:x="http://ns.adobe.com/Extensibility/1.0/" xmlns:i="http://ns.adobe.com/AdobeIllustrator/10.0/" xmlns:graph="http://ns.adobe.com/Graphs/1.0/" xmlns="http://www.w3.org/2000/svg" xmlns:xlink="http://www.w3.org/1999/xlink" version="1.1" x="0px" y="0px" viewBox="0 0 64 64" enable-background="new 0 0 64 64" xml:space="preserve"><metadata><sfw xmlns="http://ns.adobe.com/SaveForWeb/1.0/"><slices></slices><sliceSourceBounds y="-8160" x="-8165" width="16389" height="16384" bottomLeftOrigin="true"></sliceSourceBounds></sfw></metadata><g><g><path d="M56.516,31.75l-3.159-5.472v-6.319c0-0.179-0.096-0.344-0.25-0.433l-5.472-3.16l-3.16-5.472    c-0.089-0.155-0.254-0.25-0.433-0.25h-6.319l-5.473-3.16c-0.154-0.089-0.346-0.089-0.5,0l-5.472,3.16h-6.319    c-0.179,0-0.344,0.095-0.433,0.25l-3.16,5.472l-5.472,3.16c-0.155,0.089-0.25,0.254-0.25,0.433v6.319l-3.16,5.472    c-0.089,0.155-0.089,0.345,0,0.5l3.16,5.473v6.319c0,0.179,0.095,0.344,0.25,0.433l5.472,3.16l3.16,5.472    c0.089,0.154,0.254,0.25,0.433,0.25h6.319l5.472,3.159c0.077,0.045,0.164,0.067,0.25,0.067s0.173-0.022,0.25-0.067l5.473-3.159    h6.319c0.179,0,0.344-0.096,0.433-0.25l3.16-5.472l5.472-3.16c0.154-0.089,0.25-0.254,0.25-0.433v-6.319l3.159-5.473    C56.605,32.095,56.605,31.905,56.516,31.75z M52.424,37.339c-0.044,0.076-0.067,0.162-0.067,0.25v6.164l-5.338,3.083    c-0.076,0.044-0.139,0.106-0.183,0.183l-3.083,5.338h-6.164c-0.088,0-0.174,0.023-0.25,0.067L32,55.506l-5.338-3.082    c-0.076-0.044-0.162-0.067-0.25-0.067h-6.165l-3.082-5.338c-0.044-0.076-0.107-0.139-0.183-0.183l-5.338-3.083v-6.164    c0-0.088-0.023-0.174-0.067-0.25L8.494,32l3.083-5.338c0.044-0.076,0.067-0.162,0.067-0.25v-6.165l5.338-3.082    c0.076-0.044,0.139-0.107,0.183-0.183l3.082-5.338h6.165c0.088,0,0.174-0.023,0.25-0.067L32,8.494l5.339,3.083    c0.076,0.044,0.162,0.067,0.25,0.067h6.164l3.083,5.338c0.044,0.076,0.106,0.139,0.183,0.183l5.338,3.082v6.165    c0,0.088,0.023,0.174,0.067,0.25L55.506,32L52.424,37.339z"></path><path d="M39.186,21.536c-0.256-0.104-0.547,0.022-0.649,0.279l-7.771,19.428l-5.487-3.658c-0.23-0.154-0.541-0.091-0.693,0.139    c-0.153,0.229-0.091,0.54,0.139,0.693l6,4C30.806,42.472,30.902,42.5,31,42.5c0.05,0,0.1-0.008,0.148-0.022    c0.144-0.045,0.26-0.152,0.316-0.292l8-20C39.566,21.929,39.442,21.638,39.186,21.536z"></path></g></g></svg>