<svg height='200' width='200'  fill="#8980fe" xmlns="http://www.w3.org/2000/svg" xmlns:xlink="http://www.w3.org/1999/xlink" version="1.1" x="0px" y="0px" viewBox="0 0 90 90" enable-background="new 0 0 90 90" xml:space="preserve"><path d="M31.41,26.46c2.918-2.145,6.356-3.622,10.09-4.194V15.21c-5.661,0.658-10.839,2.892-15.088,6.252L31.41,26.46z"></path><path d="M22.266,41.5c0.573-3.734,2.049-7.172,4.194-10.09l-4.998-4.998c-3.36,4.25-5.594,9.427-6.252,15.088H22.266z"></path><g><path d="M68.436,27.929c2.717,3.723,4.502,8.029,5.209,12.571h-5.066c-0.612-3.198-1.891-6.272-3.732-8.98L68.436,27.929    M68.538,26.412L63.54,31.41c2.146,2.918,3.622,6.357,4.194,10.091h7.056C74.132,35.839,71.898,30.661,68.538,26.412L68.538,26.412   z"></path></g><g><path d="M49.5,16.355c4.542,0.709,8.848,2.494,12.57,5.21l-3.592,3.591c-2.707-1.844-5.78-3.122-8.979-3.733V16.355 M48.5,15.21   v7.056c3.734,0.573,7.173,2.049,10.091,4.194l4.998-4.998C59.339,18.102,54.161,15.868,48.5,15.21L48.5,15.21z"></path></g><g><path d="M73.645,49.5c-0.707,4.542-2.492,8.848-5.209,12.57l-3.592-3.592c1.844-2.707,3.121-5.78,3.733-8.979H73.645 M74.79,48.5   h-7.056c-0.572,3.734-2.049,7.173-4.194,10.091l4.998,4.998C71.898,59.339,74.132,54.161,74.79,48.5L74.79,48.5z"></path></g><g><path d="M58.479,64.844l3.592,3.592c-3.723,2.717-8.028,4.502-12.57,5.209v-5.066C52.698,67.965,55.771,66.688,58.479,64.844    M58.591,63.54c-2.918,2.146-6.356,3.622-10.091,4.194v7.056c5.661-0.658,10.839-2.892,15.089-6.252L58.591,63.54L58.591,63.54z"></path></g><path d="M26.46,58.591c-2.145-2.918-3.622-6.356-4.194-10.091H15.21c0.658,5.661,2.892,10.839,6.252,15.089L26.46,58.591z"></path><g><path d="M31.52,64.844c2.708,1.844,5.782,3.121,8.98,3.733v5.067c-4.542-0.709-8.848-2.494-12.571-5.209L31.52,64.844    M31.409,63.54l-4.998,4.998c4.25,3.36,9.427,5.594,15.088,6.252v-7.056C37.766,67.162,34.328,65.686,31.409,63.54L31.409,63.54z"></path></g></svg>