<?xml version="1.0" encoding="utf-8"?>
<!-- Generator: Adobe Illustrator 22.1.0, SVG Export Plug-In . SVG Version: 6.00 Build 0)  -->
<svg version="1.1" id="图层_1" xmlns="http://www.w3.org/2000/svg" xmlns:xlink="http://www.w3.org/1999/xlink" x="0px" y="0px"
	 viewBox="0 0 48 48" style="enable-background:new 0 0 48 48;" xml:space="preserve">
<style type="text/css">
	.st0{fill:#FFFFFF;}
	.st1{fill:#A9A2FB;}
	.st2{fill:none;stroke:#8980FE;stroke-width:2;stroke-linecap:round;stroke-linejoin:round;stroke-miterlimit:10;}
	.st3{fill:none;}
</style>
<g transform="translate(2328 26)">
	<g transform="translate(1 1)">
		<path class="st0" d="M-2288,7l-3,2l-3-2l-4,2V-2l-2-1.4V-18l-14-8l-14,8v16l14,8l10-5.8V8h-3l-3,7l3,5h23V10L-2288,7z"/>
		<path class="st1" d="M-2314,1l11-6l1.4,1.4L-2304-2v2.2l-10,5.8l-14-8l3-3L-2314,1z"/>
		<g transform="translate(9 7)">
			<path class="st2" d="M-2319-23h-7l-2,3l2,3h6l2,3l-2,3h-7"/>
			<line class="st2" x1="-2323" y1="-23" x2="-2323" y2="-26"/>
			<line class="st2" x1="-2323" y1="-8" x2="-2323" y2="-11"/>
		</g>
		<path class="st2" d="M-2304,14V-2l3-2l3,2V9l4-2l3,2l3-2l4,3v10h-23l-3-5l3-7h3"/>
		<path class="st2" d="M-2300-7v-11l-14-8l-14,8v16l14,8l6-3.4"/>
	</g>
	<rect x="-2328" y="-26" class="st3" width="48" height="48"/>
</g>
</svg>
