<?xml version="1.0" encoding="utf-8"?>
<!-- Generator: Adobe Illustrator 22.1.0, SVG Export Plug-In . SVG Version: 6.00 Build 0)  -->
<svg version="1.1" id="图层_1" xmlns="http://www.w3.org/2000/svg" xmlns:xlink="http://www.w3.org/1999/xlink" x="0px" y="0px"
	 viewBox="0 0 48 48" style="enable-background:new 0 0 48 48;" xml:space="preserve">
<style type="text/css">
	.st0{fill:#FFFFFF;}
	.st1{fill:#A9A2FB;}
	.st2{fill:none;stroke:#A9A2FB;stroke-width:2;stroke-linecap:round;stroke-linejoin:round;stroke-miterlimit:10;}
	.st3{fill:none;stroke:#A9A2FB;stroke-width:2;stroke-linejoin:round;stroke-miterlimit:10;}
	.st4{fill:none;}
</style>
<g transform="translate(2891 -156)">
	<g transform="translate(1 7)">
		<path class="st0" d="M-2883,180l-8-8h16L-2883,180z"/>
		<path class="st0" d="M-2855,180l-8-8h16L-2855,180z"/>
		<path class="st1" d="M-2883,180v-8h8L-2883,180z"/>
		<path class="st1" d="M-2855,180v-8h8L-2855,180z"/>
		<line class="st2" x1="-2887" y1="160" x2="-2851" y2="160"/>
		<line class="st2" x1="-2869" y1="156" x2="-2869" y2="192"/>
		<line class="st2" x1="-2875" y1="192" x2="-2863" y2="192"/>
		<line class="st3" x1="-2883" y1="160" x2="-2883" y2="172"/>
		<line class="st3" x1="-2855" y1="160" x2="-2855" y2="172"/>
		<path class="st3" d="M-2883,180l-8-8h16L-2883,180z"/>
		<path class="st3" d="M-2855,180l-8-8h16L-2855,180z"/>
	</g>
	<rect x="-2891" y="156" class="st4" width="48" height="48"/>
</g>
</svg>
