<?xml version="1.0" encoding="utf-8"?>
<!-- Generator: Adobe Illustrator 22.1.0, SVG Export Plug-In . SVG Version: 6.00 Build 0)  -->
<svg version="1.1" id="图层_1" xmlns="http://www.w3.org/2000/svg" xmlns:xlink="http://www.w3.org/1999/xlink" x="0px" y="0px"
	 viewBox="0 0 48 48" style="enable-background:new 0 0 48 48;" xml:space="preserve">
<style type="text/css">
	.st0{fill:#FFFFFF;}
	.st1{fill:#A9A2FB;}
	.st2{fill:none;stroke:#8980FE;stroke-width:2;stroke-linecap:round;stroke-linejoin:round;}
	.st3{fill:none;}
</style>
<g transform="translate(2328 234)">
	<g transform="translate(2 4)">
		<path class="st0" d="M-2289-207l-10,3l-13-0.9l4-6.1l-1-3l-10,6l-5,6l-4,1l4,9l11-5h14l11-7L-2289-207z"/>
		<path class="st0" d="M-2303-226.7l10-5.3l10,5.3v11.4l-10,5.3l-10-5.3V-226.7z"/>
		<path class="st0" d="M-2307-220.5l-8,4.5l-8-4.5v-9l8-4.5l8,4.5V-220.5z"/>
		<path class="st1" d="M-2293-210l10-5.3l-3-1.7l-7,4l-7-4l-3,1.7L-2293-210z"/>
		<path class="st1" d="M-2307-229.5v9l-8,4.5l-8-4.5L-2307-229.5z"/>
		<path class="st2" d="M-2324-192l11-5h14l11-7l-1-3l-10,3l-14-1"/>
		<path class="st2" d="M-2312-204.9l4-6.1l-1-3l-10,6l-5,6l-4,1"/>
		<path class="st2" d="M-2303-226.7l10-5.3l10,5.3v11.4l-10,5.3l-10-5.3V-226.7z"/>
		<path class="st2" d="M-2307-220.5l-8,4.5l-8-4.5v-9l8-4.5l8,4.5V-220.5z"/>
	</g>
	<rect x="-2328" y="-234" class="st3" width="48" height="48"/>
</g>
</svg>
