<?xml version="1.0" encoding="utf-8"?>
<!-- Generator: Adobe Illustrator 22.1.0, SVG Export Plug-In . SVG Version: 6.00 Build 0)  -->
<svg version="1.1" id="图层_1" xmlns="http://www.w3.org/2000/svg" xmlns:xlink="http://www.w3.org/1999/xlink" x="0px" y="0px"
	 viewBox="0 0 72 72" style="enable-background:new 0 0 72 72;" xml:space="preserve">
<style type="text/css">
	.st0{fill:#FFFFFF;}
	.st1{opacity:0.3;fill:#A9A2FB;enable-background:new    ;}
	.st2{fill:none;stroke:#8980FE;stroke-width:2;stroke-linecap:round;stroke-linejoin:round;}
	.st3{fill:none;}
</style>
<g transform="translate(4606 -459)">
	<g transform="translate(2 1)">
		<path class="st0" d="M-4582,464.2l9-5.2l9,5.2v10.5l-9,5.2l-9-5.2V464.2z"/>
		<path class="st0" d="M-4591,489l-9,13.5l-6-1.5v12l6-1.5l9,10.5v6l9-6h12l13.5,6l-1.5-7.5l7.5-15l-7.5-19.5h-25.5l-7.5-7.5V489z"
			/>
		<path class="st1" d="M-4552.7,509.9L-4564,492h-24l-9,15h-9v6l6-1.5l9,10.5v6l9-6h12l13.5,6l-1.5-7.5L-4552.7,509.9z"/>
		<path class="st1" d="M-4564,464.2v10.5l-9,5.2l-9-5.2L-4564,464.2z"/>
		<line class="st2" x1="-4591" y1="498" x2="-4591" y2="501"/>
		<path class="st2" d="M-4550.5,505.5l4.5-7.5l4.5,6l4.5-4.5"/>
		<line class="st2" x1="-4578.7" y1="492" x2="-4566.7" y2="492"/>
		<path class="st2" d="M-4582,464.2l9-5.2l9,5.2v10.5l-9,5.2l-9-5.2V464.2z"/>
		<path class="st2" d="M-4591,489l-9,13.5l-6-1.5v12l6-1.5l9,10.5v6l9-6h12l13.5,6l-1.5-7.5l7.5-15l-7.5-19.5h-25.5l-7.5-7.5V489z"
			/>
	</g>
	<rect x="-4606" y="459" class="st3" width="72" height="72"/>
</g>
</svg>
