<svg height='200' width='200'  fill="#8980fe" xmlns="http://www.w3.org/2000/svg" xmlns:xlink="http://www.w3.org/1999/xlink" version="1.1" x="0px" y="0px" viewBox="0 0 64 64" style="enable-background:new 0 0 64 64;" xml:space="preserve"><style type="text/css">
	.st0{display:none;}
	.st1{display:inline;}
	.st2{fill:none;stroke:#8980fe;stroke-width:0.1;stroke-miterlimit:10;}
</style><g class="st0"><g class="st1"><rect x="2" y="2" class="st2" width="60" height="60"></rect><line class="st2" x1="32" y1="2" x2="32" y2="62"></line><line class="st2" x1="62" y1="32" x2="2" y2="32"></line><line class="st2" x1="2" y1="2" x2="62" y2="62"></line><rect x="10" y="10" class="st2" width="44" height="44"></rect><line class="st2" x1="62" y1="2" x2="2" y2="62"></line><line class="st2" x1="2" y1="32" x2="32" y2="2"></line><line class="st2" x1="32" y1="2" x2="62" y2="32"></line><line class="st2" x1="62" y1="32" x2="32" y2="62"></line><line class="st2" x1="32" y1="62" x2="2" y2="32"></line><circle class="st2" cx="32" cy="32" r="21"></circle></g></g><circle cx="42" cy="7" r="1"></circle><circle cx="46" cy="7" r="1"></circle><circle cx="50" cy="7" r="1"></circle><path d="M35,18L8.3,62h53.4L35,18z M35,22l23.3,38H11.7L35,22z"></path><path d="M37.9,50L39,31h-8.1L32,50H37.9z M36.9,33L36,48h-2.1L33,33H36.9z"></path><path d="M31,58h8v-6h-8V58z M33,54h4v2h-4V54z"></path><path d="M12,52H4V12h48v30.1l2,3.3v-1.2L53.9,44H54V2H2v52h8.8L12,52z M52,4v6H4V4H52z"></path></svg>