<svg height='200' width='200'  fill="#8980fe" xmlns="http://www.w3.org/2000/svg" data-name="Layer 1" viewBox="0 0 100 100" x="0px" y="0px"><title>Artboard 7</title><path d="M94.54,39.58a6,6,0,0,0-2.38-7.33l-7.51-4.63A5.94,5.94,0,0,1,82,24l-2.08-8.58a5.94,5.94,0,0,0-6.23-4.53l-8.8.67a5.94,5.94,0,0,1-4.3-1.4L53.85,4.42a5.94,5.94,0,0,0-7.7,0l-6.72,5.72a5.94,5.94,0,0,1-4.3,1.4l-8.8-.67a5.94,5.94,0,0,0-6.23,4.53L18,24a6,6,0,0,1-2.66,3.66L7.84,32.25a5.94,5.94,0,0,0-2.38,7.33l3.36,8.16a5.94,5.94,0,0,1,0,4.53L5.46,60.42a5.94,5.94,0,0,0,2.38,7.33l7.51,4.63A6,6,0,0,1,18,76l2.08,8.58a5.94,5.94,0,0,0,6.23,4.53l8.8-.67a5.94,5.94,0,0,1,4.3,1.4l6.72,5.72a5.94,5.94,0,0,0,7.7,0l6.72-5.72a5.94,5.94,0,0,1,4.3-1.4l8.8.67a5.94,5.94,0,0,0,6.23-4.53L82,76a5.94,5.94,0,0,1,2.66-3.66l7.51-4.63a6,6,0,0,0,2.38-7.33l-3.36-8.16a6,6,0,0,1,0-4.53Zm-45,32.9a3.91,3.91,0,1,1,3.91-3.91A3.92,3.92,0,0,1,49.54,72.48Zm4.28-19s-.39.14-.39.37V57a3.89,3.89,0,1,1-7.79,0v-3.1a8.23,8.23,0,0,1,5.68-7.74,5.53,5.53,0,0,0,3.76-5.43,5.68,5.68,0,0,0-5.59-5.38,5.51,5.51,0,0,0-5,3.14,3.89,3.89,0,0,1-7-3.38,13.25,13.25,0,0,1,11.92-7.55h.08A13.44,13.44,0,0,1,62.86,40.46,13.27,13.27,0,0,1,53.82,53.49Z"></path></svg>