<?xml version="1.0" encoding="utf-8"?>
<!-- Generator: Adobe Illustrator 22.1.0, SVG Export Plug-In . SVG Version: 6.00 Build 0)  -->
<svg version="1.1" id="图层_1" xmlns="http://www.w3.org/2000/svg" xmlns:xlink="http://www.w3.org/1999/xlink" x="0px" y="0px"
	 viewBox="0 0 72 72" style="enable-background:new 0 0 72 72;" xml:space="preserve">
<style type="text/css">
	.st0{opacity:0.3;fill:#A9A2FB;enable-background:new    ;}
	.st1{fill:none;stroke:#8980FE;stroke-width:2;stroke-linecap:round;stroke-linejoin:round;}
	.st2{fill:#8980FE;}
	.st3{fill:none;}
</style>
<g transform="translate(6105 280)">
	<g transform="translate(6 1)">
		<path class="st0" d="M-6051.3-231.5l-23.7,13l-23.7-13l-6.3,3.3l30,17.2l30-17.2L-6051.3-231.5z"/>
		<path class="st0" d="M-6060-248l6-6l-3-5.2l-4.9,1.3l-6.5,6.5l2.4,1.4v9l-9,5.3l-5.7-3.4l-5.5,5.5l1.5-0.4l5,2.9l1.8,6.5h6
			l1.8-6.5l5-2.9l8.3,2.1l3-5.2l-6-6L-6060-248z"/>
		<path class="st1" d="M-6045-228.2l-30,17.2l-30-17.2v-34.5l30-17.2l30,17.2V-228.2z"/>
		<path class="st1" d="M-6084-250l9-5.3l9,5.3v9l-9,5.3l-9-5.3V-250z"/>
		<path class="st2" d="M-6073.3-246.2L-6073.3-246.2 M-6075-248.5c-0.2,0-0.3,0.1-0.4,0.2l-2.4,2.4c-0.2,0.2-0.2,0.6,0,0.8
			c0,0,0,0,0,0l2.4,2.4c0.2,0.2,0.6,0.2,0.8,0c0,0,0,0,0,0l2.4-2.4c0.2-0.2,0.2-0.6,0-0.8c0,0,0,0,0,0l-2.4-2.4
			C-6074.7-248.4-6074.8-248.5-6075-248.5z"/>
		<path class="st1" d="M-6060-248l6-6l-3-5.2l-8.3,2.1l-5-2.9l-1.8-6.5h-6l-1.8,6.5l-5,2.9l-8.3-2.1l-3,5.2l6,6v5l-6,6l3,5.2
			l8.3-2.1l5,2.9l1.8,6.5h6l1.8-6.5l5-2.9l8.3,2.1l3-5.2l-6-6V-248z"/>
	</g>
	<rect x="-6105" y="-280" class="st3" width="72" height="72"/>
</g>
</svg>
