<?xml version="1.0" encoding="utf-8"?>
<!-- Generator: Adobe Illustrator 22.1.0, SVG Export Plug-In . SVG Version: 6.00 Build 0)  -->
<svg version="1.1" id="图层_1" xmlns="http://www.w3.org/2000/svg" xmlns:xlink="http://www.w3.org/1999/xlink" x="0px" y="0px"
	 viewBox="0 0 47 42" style="enable-background:new 0 0 47 42;" xml:space="preserve">
<style type="text/css">
	.st0{fill:#8980FE;}
	.st1{fill:#FFFFFF;}
	.st2{fill:none;}
	.st3{fill:#8F80FE;}
</style>
<g transform="translate(8421 -1430)">
	<g transform="translate(186 441)">
		<g transform="translate(-5399.85 1019.456)">
			<path class="st0" d="M-3191.3-29.4l-11.8,6.6c-2.5,1.4-4.1,4-4.1,6.8v13.1c0,2.9,1.6,5.5,4.1,6.8l11.8,6.6c2.6,1.4,5.6,1.4,8.2,0
				l11.8-6.6c2.5-1.4,4.1-4,4.1-6.8V-16c0-2.9-1.6-5.5-4.1-6.8l-11.8-6.6C-3185.6-30.8-3188.7-30.8-3191.3-29.4z"/>
			<path class="st1" d="M-3191-28.4l-11.2,6.2c-2.4,1.3-3.9,3.8-3.9,6.5v12.5c0,2.7,1.5,5.2,3.9,6.5l11.2,6.2c2.4,1.3,5.4,1.3,7.8,0
				l11.2-6.2c2.4-1.3,3.9-3.8,3.9-6.5v-12.5c0-2.7-1.5-5.2-3.9-6.5l-11.2-6.2C-3185.7-29.8-3188.6-29.8-3191-28.4z"/>
		</g>
		<g transform="translate(23.15 116.456)">
			<rect x="-8622" y="881" class="st2" width="24" height="24"/>
			<rect x="-8617" y="899" class="st3" width="8" height="1"/>
			<rect x="-8617" y="892" class="st3" width="1" height="8"/>
			
				<rect x="-8618.6" y="892.3" transform="matrix(0.7071 -0.7071 0.7071 0.7071 -3153.0215 -5826.4961)" class="st3" width="17.7" height="1"/>
		</g>
	</g>
	<rect x="-8421" y="1446" class="st2" width="47" height="2"/>
</g>
</svg>
