<svg height='200' width='200'  fill="#8980fe" xmlns="http://www.w3.org/2000/svg" xmlns:xlink="http://www.w3.org/1999/xlink" version="1.1" x="0px" y="0px" viewBox="0 0 100 100" style="enable-background:new 0 0 100 100;" xml:space="preserve"><g><path d="M80.7,31.6h-6.1c5.1-5.7,5.5-14.5,0.6-20.7c-2.7-3.3-6.5-5.5-10.7-5.9C60.2,4.6,56,5.8,52.7,8.4C52,9,51.1,9.9,50,11.4   c-1.1-1.5-2-2.4-2.7-3c-6.9-5.5-17-4.4-22.5,2.6c-4.9,6.2-4.5,14.9,0.6,20.7h-6.1c-2.4,0-4.3,1.9-4.3,4.3v54.8   c0,2.4,1.9,4.3,4.3,4.3h23.1h15.2h23.1c2.4,0,4.3-1.9,4.3-4.3V36C85,33.6,83.1,31.6,80.7,31.6z M79.9,66.1H54.3v25.6h-8.6V66.1   H20.1v-8.6h25.6V40.6l-11.9,12l-4.7-4.7l13.3-13.3l-3.2-0.5c-6.3-1-8.9-2.6-9.7-3.2c-5.5-4.4-6.4-12.4-2-17.9   c4.4-5.5,12.4-6.4,17.9-2c0.6,0.5,1.8,1.6,3.3,4.3L50,18l1.4-2.6c1.5-2.7,2.7-3.9,3.3-4.3c2.7-2.1,6-3.1,9.3-2.7   c3.4,0.4,6.4,2.1,8.5,4.7c4.4,5.5,3.5,13.5-2,17.9c-0.8,0.6-3.4,2.2-9.7,3.2l-3.2,0.5l13.3,13.3l-4.7,4.7l-12-12v16.9h25.6V66.1z"></path><path d="M41.2,16.2L41.2,16.2c-1.1-0.9-2.5-1.4-3.8-1.4c-1.9,0-3.6,0.8-4.8,2.3c-1,1.3-1.5,2.9-1.3,4.5c0.2,1.6,1,3.1,2.3,4.1   l0.1,0.1c1.9,1.3,7.8,2,10.3,2.2l2.5,0.2l-0.8-2.4C44.9,23.5,42.9,17.8,41.2,16.2z M35.6,23.1c-0.6-0.5-0.9-1.1-1-1.8   c-0.1-0.7,0.1-1.5,0.6-2h0c0.5-0.7,1.3-1,2.2-1c0.6,0,1.2,0.2,1.7,0.6c0.4,0.4,1.4,2.1,2.7,5.7C38,24,36,23.4,35.6,23.1z"></path><path d="M66.4,25.8L66.4,25.8c2.7-2.1,3.1-6,1-8.6c-1-1.3-2.5-2.1-4.1-2.3c-1.6-0.2-3.2,0.3-4.5,1.3l-0.1,0.1   c-1.7,1.5-3.7,7.2-4.5,9.6l-0.8,2.4L56,28C58.5,27.8,64.5,27.1,66.4,25.8z M60.9,18.8c0.6-0.4,1.3-0.6,2-0.6c0.7,0.1,1.4,0.5,1.9,1   c0.9,1.2,0.8,2.9-0.4,3.9C64,23.4,62,24,58.3,24.4C59.6,20.9,60.6,19.1,60.9,18.8z"></path></g></svg>