<svg height='200' width='200'  fill="#8980fe" xmlns="http://www.w3.org/2000/svg" xmlns:xlink="http://www.w3.org/1999/xlink" version="1.1" x="0px" y="0px" viewBox="0 0 100 100" enable-background="new 0 0 100 100" xml:space="preserve"><g><path d="M50,10c-22.092,0-40,17.908-40,40s17.908,40,40,40s40-17.908,40-40S72.092,10,50,10z M69.682,56.445L50.536,67.5   c-0.001,0.001-0.002,0.002-0.004,0.003c-0.165,0.095-0.348,0.142-0.532,0.142s-0.367-0.047-0.532-0.142   c-0.001-0.001-0.002-0.002-0.004-0.003L30.317,56.446c-0.274-0.158-0.464-0.432-0.517-0.745c-0.053-0.313,0.037-0.633,0.245-0.873   l19.149-22.114c0.023-0.025,0.052-0.041,0.076-0.064c0.041-0.038,0.081-0.075,0.127-0.107c0.046-0.032,0.093-0.056,0.143-0.08   c0.03-0.015,0.055-0.037,0.087-0.049c0.019-0.007,0.038-0.006,0.056-0.012c0.052-0.016,0.104-0.025,0.157-0.033   c0.055-0.008,0.108-0.016,0.163-0.016c0.049,0,0.096,0.008,0.145,0.015c0.058,0.009,0.115,0.018,0.171,0.036   c0.017,0.006,0.035,0.005,0.052,0.011c0.031,0.011,0.055,0.033,0.084,0.047c0.051,0.025,0.1,0.049,0.147,0.082   c0.046,0.032,0.086,0.069,0.126,0.107c0.024,0.023,0.054,0.038,0.076,0.064l19.151,22.113c0.208,0.24,0.297,0.56,0.244,0.872   C70.147,56.014,69.957,56.287,69.682,56.445z"></path><polygon points="48.936,64.739 48.936,36.265 32.497,55.247  "></polygon><polygon points="51.064,64.739 67.503,55.247 51.064,36.265  "></polygon></g></svg>