<svg xmlns="http://www.w3.org/2000/svg" viewBox="8621.849 -544.456 47.151 42"><defs><style>.a{fill:#3d4f6c;}.b{fill:#fff;}.c{fill:none;}</style></defs><g transform="translate(8421 -1430)"><g transform="translate(185 777)"><g transform="translate(-5399 1020)"><path class="a" d="M32.2,200.161l-11.79,6.553a7.873,7.873,0,0,0-4.11,6.844v13.085a7.83,7.83,0,0,0,4.11,6.844l11.79,6.553a8.451,8.451,0,0,0,8.2,0l11.79-6.553a7.874,7.874,0,0,0,4.11-6.844V213.558a7.83,7.83,0,0,0-4.11-6.844L40.4,200.161A8.451,8.451,0,0,0,32.2,200.161Z" transform="translate(5398.549 -1110.556)"/><path class="b" d="M31.405,200.11l-11.2,6.241a7.5,7.5,0,0,0-3.9,6.518v12.462a7.46,7.46,0,0,0,3.9,6.518l11.2,6.241a8.011,8.011,0,0,0,7.789,0l11.2-6.241a7.5,7.5,0,0,0,3.9-6.518V212.869a7.46,7.46,0,0,0-3.9-6.518l-11.2-6.241A8.011,8.011,0,0,0,31.405,200.11Z" transform="translate(5399.549 -1109.556)"/></g><g transform="translate(24 117)"><rect class="c" width="24" height="24"/><rect class="a" width="8" height="1" transform="translate(11 5)"/><rect class="a" width="1" height="8" transform="translate(18 5)"/><rect class="a" width="17.7" height="1" transform="translate(5.174 18.19) rotate(-45)"/></g></g><rect class="c" width="47" height="2" transform="translate(201 913)"/></g></svg>