<svg height='200' width='200'  fill="#8980fe" xmlns="http://www.w3.org/2000/svg" xmlns:xlink="http://www.w3.org/1999/xlink" version="1.1" x="0px" y="0px" viewBox="0 0 100 100" style="enable-background:new 0 0 100 100;" xml:space="preserve"><style type="text/css">
	.st0{fill:none;}
</style><g><path class="st0" d="M77.352,62.28H22.648c-1.39,0-2.516,1.127-2.516,2.516v8.736c0,1.39,1.127,2.516,2.516,2.516h54.705   c1.39,0,2.516-1.127,2.516-2.516v-8.736C79.869,63.406,78.742,62.28,77.352,62.28z M29.476,70.411   c0.241,0.139,0.324,0.45,0.185,0.69c-0.139,0.241-0.45,0.324-0.69,0.185l-2.16-1.247v2.494c0,0.278-0.227,0.505-0.505,0.505   s-0.505-0.227-0.505-0.505v-2.494l-2.16,1.247c-0.241,0.138-0.551,0.056-0.69-0.185c-0.139-0.241-0.056-0.551,0.185-0.69   l2.16-1.247l-2.16-1.247c-0.241-0.138-0.324-0.449-0.185-0.69c0.139-0.241,0.45-0.324,0.69-0.185l2.16,1.247v-2.494   c0-0.278,0.227-0.505,0.505-0.505s0.505,0.227,0.505,0.505v2.494l2.16-1.247c0.241-0.139,0.551-0.056,0.69,0.185   c0.139,0.241,0.056,0.552-0.185,0.69l-2.16,1.247L29.476,70.411z M38.954,70.411c0.241,0.139,0.324,0.45,0.185,0.69   c-0.139,0.241-0.449,0.324-0.69,0.185l-2.16-1.247v2.494c0,0.278-0.227,0.505-0.505,0.505c-0.278,0-0.505-0.227-0.505-0.505v-2.494   l-2.16,1.247c-0.241,0.138-0.551,0.056-0.69-0.185c-0.139-0.241-0.056-0.551,0.185-0.69l2.16-1.247l-2.16-1.247   c-0.241-0.138-0.324-0.449-0.185-0.69c0.139-0.241,0.45-0.324,0.69-0.185l2.16,1.247v-2.494c0-0.278,0.228-0.505,0.505-0.505   c0.278,0,0.505,0.227,0.505,0.505v2.494l2.16-1.247c0.241-0.139,0.551-0.056,0.69,0.185c0.139,0.241,0.056,0.552-0.185,0.69   l-2.16,1.247L38.954,70.411z M48.432,70.411c0.241,0.139,0.324,0.45,0.185,0.69c-0.138,0.241-0.449,0.324-0.69,0.185l-2.16-1.247   v2.494c0,0.278-0.227,0.505-0.505,0.505c-0.278,0-0.505-0.227-0.505-0.505v-2.494l-2.16,1.247c-0.241,0.138-0.551,0.056-0.69-0.185   c-0.139-0.241-0.056-0.551,0.185-0.69l2.16-1.247l-2.16-1.247c-0.241-0.138-0.324-0.449-0.185-0.69   c0.139-0.241,0.45-0.324,0.69-0.185l2.16,1.247v-2.494c0-0.278,0.227-0.505,0.505-0.505c0.278,0,0.505,0.227,0.505,0.505v2.494   l2.16-1.247c0.241-0.139,0.552-0.056,0.69,0.185c0.139,0.241,0.056,0.552-0.185,0.69l-2.16,1.247L48.432,70.411z M57.909,70.411   c0.241,0.139,0.324,0.45,0.185,0.69c-0.139,0.241-0.45,0.324-0.69,0.185l-2.16-1.247v2.494c0,0.278-0.227,0.505-0.505,0.505   c-0.278,0-0.505-0.227-0.505-0.505v-2.494l-2.16,1.247c-0.241,0.138-0.552,0.056-0.691-0.185c-0.138-0.241-0.056-0.551,0.185-0.69   l2.16-1.247l-2.16-1.247c-0.241-0.138-0.324-0.449-0.185-0.69c0.139-0.241,0.45-0.324,0.691-0.185l2.16,1.247v-2.494   c0-0.278,0.227-0.505,0.505-0.505c0.278,0,0.505,0.227,0.505,0.505v2.494l2.16-1.247c0.241-0.139,0.551-0.056,0.69,0.185   c0.139,0.241,0.056,0.552-0.185,0.69l-2.16,1.247L57.909,70.411z M67.387,70.411c0.241,0.139,0.324,0.45,0.185,0.69   c-0.139,0.241-0.45,0.324-0.69,0.185l-2.16-1.247v2.494c0,0.278-0.228,0.505-0.505,0.505c-0.278,0-0.505-0.227-0.505-0.505v-2.494   l-2.16,1.247c-0.241,0.138-0.552,0.056-0.69-0.185c-0.139-0.241-0.056-0.551,0.185-0.69l2.16-1.247l-2.16-1.247   c-0.241-0.138-0.324-0.449-0.185-0.69c0.138-0.241,0.45-0.324,0.69-0.185l2.16,1.247v-2.494c0-0.278,0.227-0.505,0.505-0.505   c0.277,0,0.505,0.227,0.505,0.505v2.494l2.16-1.247c0.241-0.139,0.551-0.056,0.69,0.185c0.139,0.241,0.056,0.552-0.185,0.69   l-2.16,1.247L67.387,70.411z M76.865,70.411c0.241,0.139,0.324,0.45,0.185,0.69c-0.139,0.241-0.45,0.324-0.69,0.185l-2.16-1.247   v2.494c0,0.278-0.227,0.505-0.505,0.505s-0.505-0.227-0.505-0.505v-2.494l-2.16,1.247c-0.241,0.138-0.551,0.056-0.69-0.185   c-0.139-0.241-0.056-0.551,0.185-0.69l2.16-1.247l-2.16-1.247c-0.241-0.138-0.324-0.449-0.185-0.69   c0.139-0.241,0.45-0.324,0.69-0.185l2.16,1.247v-2.494c0-0.278,0.227-0.505,0.505-0.505s0.505,0.227,0.505,0.505v2.494l2.16-1.247   c0.241-0.139,0.551-0.056,0.69,0.185c0.139,0.241,0.056,0.552-0.185,0.69l-2.16,1.247L76.865,70.411z"></path><path class="st0" d="M71.741,35.78c0-11.987-9.754-21.741-21.741-21.741S28.259,23.793,28.259,35.78v7.548h43.482V35.78z"></path><path d="M82.92,43.328H80.78V35.78C80.78,18.81,66.975,5,50,5C33.03,5,19.22,18.81,19.22,35.78v7.548H17.08   c-2.068,0-3.76,1.692-3.76,3.76V91.24c0,2.068,1.691,3.76,3.76,3.76H82.92c2.068,0,3.76-1.692,3.76-3.76V47.088   C86.679,45.02,84.988,43.328,82.92,43.328z M28.259,35.78c0-11.987,9.754-21.741,21.741-21.741s21.741,9.754,21.741,21.741v7.548   H28.259V35.78z M79.869,73.532c0,1.39-1.127,2.516-2.516,2.516H22.648c-1.39,0-2.516-1.127-2.516-2.516v-8.736   c0-1.39,1.127-2.516,2.516-2.516h54.705c1.39,0,2.516,1.127,2.516,2.516V73.532z"></path><path d="M48.616,67.227c-0.138-0.241-0.449-0.324-0.69-0.185l-2.16,1.247v-2.494c0-0.278-0.227-0.505-0.505-0.505   c-0.278,0-0.505,0.227-0.505,0.505v2.494l-2.16-1.247c-0.241-0.139-0.551-0.056-0.69,0.185c-0.139,0.241-0.056,0.552,0.185,0.69   l2.16,1.247l-2.16,1.247c-0.241,0.139-0.324,0.45-0.185,0.69c0.139,0.241,0.45,0.324,0.69,0.185l2.16-1.247v2.494   c0,0.278,0.227,0.505,0.505,0.505c0.278,0,0.505-0.227,0.505-0.505v-2.494l2.16,1.247c0.241,0.138,0.552,0.056,0.69-0.185   c0.139-0.241,0.056-0.551-0.185-0.69l-2.16-1.247l2.16-1.247C48.673,67.778,48.755,67.468,48.616,67.227z"></path><path d="M39.139,67.227c-0.139-0.241-0.449-0.324-0.69-0.185l-2.16,1.247v-2.494c0-0.278-0.227-0.505-0.505-0.505   c-0.278,0-0.505,0.227-0.505,0.505v2.494l-2.16-1.247c-0.241-0.139-0.551-0.056-0.69,0.185c-0.139,0.241-0.056,0.552,0.185,0.69   l2.16,1.247l-2.16,1.247c-0.241,0.139-0.324,0.45-0.185,0.69c0.139,0.241,0.45,0.324,0.69,0.185l2.16-1.247v2.494   c0,0.278,0.228,0.505,0.505,0.505c0.278,0,0.505-0.227,0.505-0.505v-2.494l2.16,1.247c0.241,0.138,0.551,0.056,0.69-0.185   c0.139-0.241,0.056-0.551-0.185-0.69l-2.16-1.247l2.16-1.247C39.195,67.778,39.278,67.468,39.139,67.227z"></path><path d="M29.661,67.227c-0.139-0.241-0.45-0.324-0.69-0.185l-2.16,1.247v-2.494c0-0.278-0.227-0.505-0.505-0.505   s-0.505,0.227-0.505,0.505v2.494l-2.16-1.247c-0.241-0.139-0.551-0.056-0.69,0.185c-0.139,0.241-0.056,0.552,0.185,0.69l2.16,1.247   l-2.16,1.247c-0.241,0.139-0.324,0.45-0.185,0.69c0.139,0.241,0.45,0.324,0.69,0.185l2.16-1.247v2.494   c0,0.278,0.227,0.505,0.505,0.505s0.505-0.227,0.505-0.505v-2.494l2.16,1.247c0.241,0.138,0.551,0.056,0.69-0.185   c0.139-0.241,0.056-0.551-0.185-0.69l-2.16-1.247l2.16-1.247C29.717,67.778,29.8,67.468,29.661,67.227z"></path><path d="M67.572,67.227c-0.139-0.241-0.45-0.324-0.69-0.185l-2.16,1.247v-2.494c0-0.278-0.228-0.505-0.505-0.505   c-0.278,0-0.505,0.227-0.505,0.505v2.494l-2.16-1.247c-0.241-0.139-0.552-0.056-0.69,0.185c-0.139,0.241-0.056,0.552,0.185,0.69   l2.16,1.247l-2.16,1.247c-0.241,0.139-0.324,0.45-0.185,0.69c0.138,0.241,0.45,0.324,0.69,0.185l2.16-1.247v2.494   c0,0.278,0.227,0.505,0.505,0.505c0.277,0,0.505-0.227,0.505-0.505v-2.494l2.16,1.247c0.241,0.138,0.551,0.056,0.69-0.185   c0.139-0.241,0.056-0.551-0.185-0.69l-2.16-1.247l2.16-1.247C67.628,67.778,67.711,67.468,67.572,67.227z"></path><path d="M77.05,67.227c-0.139-0.241-0.45-0.324-0.69-0.185l-2.16,1.247v-2.494c0-0.278-0.227-0.505-0.505-0.505   s-0.505,0.227-0.505,0.505v2.494l-2.16-1.247c-0.241-0.139-0.551-0.056-0.69,0.185c-0.139,0.241-0.056,0.552,0.185,0.69l2.16,1.247   l-2.16,1.247c-0.241,0.139-0.324,0.45-0.185,0.69c0.139,0.241,0.45,0.324,0.69,0.185l2.16-1.247v2.494   c0,0.278,0.227,0.505,0.505,0.505s0.505-0.227,0.505-0.505v-2.494l2.16,1.247c0.241,0.138,0.551,0.056,0.69-0.185   c0.139-0.241,0.056-0.551-0.185-0.69l-2.16-1.247l2.16-1.247C77.105,67.778,77.189,67.468,77.05,67.227z"></path><path d="M58.094,67.227c-0.139-0.241-0.45-0.324-0.69-0.185l-2.16,1.247v-2.494c0-0.278-0.227-0.505-0.505-0.505   c-0.278,0-0.505,0.227-0.505,0.505v2.494l-2.16-1.247c-0.241-0.139-0.552-0.056-0.691,0.185c-0.138,0.241-0.056,0.552,0.185,0.69   l2.16,1.247l-2.16,1.247c-0.241,0.139-0.324,0.45-0.185,0.69c0.139,0.241,0.45,0.324,0.691,0.185l2.16-1.247v2.494   c0,0.278,0.227,0.505,0.505,0.505c0.278,0,0.505-0.227,0.505-0.505v-2.494l2.16,1.247c0.241,0.138,0.551,0.056,0.69-0.185   c0.139-0.241,0.056-0.551-0.185-0.69l-2.16-1.247l2.16-1.247C58.15,67.778,58.233,67.468,58.094,67.227z"></path></g></svg>