<svg height='200' width='200'  fill="#8980fe" xmlns:dc="http://purl.org/dc/elements/1.1/" xmlns:cc="http://creativecommons.org/ns#" xmlns:rdf="http://www.w3.org/1999/02/22-rdf-syntax-ns#" xmlns:svg="http://www.w3.org/2000/svg" xmlns="http://www.w3.org/2000/svg" xmlns:sodipodi="http://sodipodi.sourceforge.net/DTD/sodipodi-0.dtd" xmlns:inkscape="http://www.inkscape.org/namespaces/inkscape" version="1.1" x="0px" y="0px" viewBox="0 0 100 100"><g transform="translate(0,-952.36218)"><path style="color:#000000;enable-background:accumulate;" d="m 30,960.36217 c -2.216,0 -4,1.784 -4,4 l 0,12 c 0,2.216 1.784,4 4,4 2.216,0 4,-1.784 4,-4 l 0,-12 c 0,-2.216 -1.784,-4 -4,-4 z m 40,0 c -2.216,0 -4,1.784 -4,4 l 0,12 c 0,2.216 1.784,4 4,4 2.216,0 4,-1.784 4,-4 l 0,-12 c 0,-2.216 -1.784,-4 -4,-4 z m -58,10 c -1.108,0 -2,0.892 -2,2 l 0,18 80,0 0,-18 c 0,-1.108 -0.892,-2 -2,-2 l -12,0 0,6 c 0,3.324 -2.676,6 -6,6 -3.324,0 -6,-2.676 -6,-6 l 0,-6 -28,0 0,6 c 0,3.324 -2.676,6 -6,6 -3.324,0 -6,-2.676 -6,-6 l 0,-6 -12,0 z m -2,24 0,48.00003 c 0,1.108 0.892,2 2,2 l 76,0 c 1.108,0 2,-0.892 2,-2 l 0,-48.00003 -80,0 z m 18,16.00003 2.4688,6.4062 6.5312,0.4688 -5.0312,4.4375 1.5937,6.6875 -5.5625,-3.6563 -5.5625,3.6563 1.5937,-6.6875 -5.0312,-4.4375 6.5312,-0.4688 2.4688,-6.4062 z m 22,0 2.4688,6.4062 6.5312,0.4688 -5.0312,4.4375 1.5937,6.6875 -5.5625,-3.6563 -5.5625,3.6563 1.5937,-6.6875 -5.0312,-4.4375 6.5312,-0.4688 2.4688,-6.4062 z m 22,0 2.4688,6.4062 6.5312,0.4688 -5.0312,4.4375 1.5937,6.6875 -5.5625,-3.6563 -5.5625,3.6563 1.5937,-6.6875 -5.0312,-4.4375 6.5312,-0.4688 2.4688,-6.4062 z" fill="#8980fe" stroke="none" marker="none" visibility="visible" display="inline" overflow="visible"></path></g></svg>