<svg height='200' width='200'  fill="#8980fe" xmlns="http://www.w3.org/2000/svg" xmlns:xlink="http://www.w3.org/1999/xlink" version="1.1" x="0px" y="0px" viewBox="0 0 100 100" enable-background="new 0 0 100 100" xml:space="preserve"><rect x="5" y="4.999" fill="none" width="90" height="90.002"></rect><g><path d="M69.209,38.35c2.023,0,3.922-0.786,5.348-2.212c2.949-2.948,2.949-7.746,0-10.695c-1.426-1.426-3.324-2.211-5.348-2.211   c-2.021,0-3.92,0.785-5.346,2.211c-2.949,2.949-2.949,7.747,0,10.695C65.289,37.563,67.188,38.35,69.209,38.35z M64.986,26.567   c1.127-1.126,2.627-1.746,4.223-1.746c1.598,0,3.098,0.62,4.225,1.746c2.328,2.328,2.328,6.117,0,8.446   c-1.127,1.126-2.627,1.746-4.225,1.746c-1.596,0-3.096-0.62-4.223-1.746C62.658,32.685,62.658,28.896,64.986,26.567z"></path><path d="M67.609,29.19c0.883-0.882,2.318-0.882,3.199,0c0.883,0.882,0.883,2.317,0,3.199c-0.311,0.311-0.311,0.814,0,1.125   c0.156,0.154,0.359,0.232,0.563,0.232s0.408-0.078,0.563-0.232c1.502-1.503,1.502-3.946,0-5.448s-3.945-1.502-5.447,0   c-0.311,0.311-0.311,0.813,0,1.124S67.299,29.501,67.609,29.19z"></path><path d="M55.791,27.366c-1.654,1.645-3.316,3.407-4.943,5.238c-0.292,0.329-0.262,0.831,0.066,1.123   c0.152,0.135,0.339,0.2,0.527,0.2c0.221,0,0.438-0.09,0.596-0.267c1.604-1.808,3.244-3.546,4.875-5.168   c0.313-0.31,0.313-0.813,0.004-1.124C56.605,27.058,56.104,27.057,55.791,27.366z"></path><path d="M71.506,43.088c-1.623,1.632-3.361,3.272-5.166,4.876c-0.328,0.291-0.359,0.794-0.066,1.122   c0.156,0.177,0.375,0.267,0.594,0.267c0.188,0,0.377-0.065,0.527-0.2c1.83-1.625,3.594-3.288,5.24-4.943   c0.309-0.312,0.307-0.814-0.004-1.124C72.32,42.774,71.816,42.776,71.506,43.088z"></path><path d="M93.469,7.806c-0.027-0.69-0.584-1.244-1.273-1.273c0,0-0.066-0.003-0.195-0.003c-1.008,0-4.734,0.158-10.412,2.201   c-7.191,2.588-14.467,7.063-21.635,13.308L47.75,19.372c-0.28-0.062-0.573-0.03-0.834,0.089l-11.608,5.313   c-0.395,0.181-0.676,0.543-0.752,0.97c-0.077,0.428,0.06,0.865,0.367,1.172l10.498,10.499c-2.271,2.852-4.523,5.905-6.708,9.093   c-0.36,0.526-0.295,1.234,0.156,1.686l1.733,1.733l-7.834,2.685c-0.433,0.148-0.758,0.51-0.861,0.955s0.03,0.912,0.354,1.235   l12.938,12.938c0.252,0.252,0.59,0.389,0.938,0.389c0.1,0,0.199-0.012,0.299-0.035c0.445-0.104,0.806-0.428,0.954-0.861   l2.686-7.834l1.732,1.732c0.451,0.451,1.16,0.518,1.688,0.156c3.186-2.184,6.24-4.437,9.092-6.708l10.498,10.499   c0.309,0.307,0.744,0.445,1.172,0.367c0.428-0.076,0.791-0.357,0.971-0.752l5.313-11.608c0.119-0.262,0.15-0.554,0.09-0.835   l-2.666-12.203c8.174-9.388,11.949-17.512,13.68-22.711C93.584,11.502,93.475,7.954,93.469,7.806z M89.07,16.667   c-1.693,5.022-5.418,12.939-13.539,22.131c-0.279,0.317-0.391,0.748-0.301,1.16l2.715,12.425l-4.334,9.474l-9.992-9.992   c-0.479-0.479-1.244-0.52-1.77-0.093c-2.795,2.264-5.801,4.516-8.949,6.704l-2.454-2.454c-0.323-0.322-0.79-0.456-1.235-0.354   c-0.446,0.104-0.807,0.429-0.955,0.861l-2.686,7.835l-9.934-9.936l7.834-2.686c0.433-0.147,0.758-0.509,0.861-0.954   c0.103-0.445-0.031-0.912-0.354-1.235L41.525,47.1c2.188-3.149,4.44-6.155,6.703-8.948c0.427-0.527,0.388-1.291-0.093-1.771   l-9.99-9.99l9.472-4.335l12.424,2.715c0.414,0.09,0.844-0.021,1.16-0.302C75.633,11.72,86.953,9.593,90.752,9.245   C90.615,10.696,90.219,13.265,89.07,16.667z"></path><path d="M47.518,51.625l-2.349,0.308c-0.436,0.058-0.742,0.456-0.686,0.892c0.058,0.436,0.458,0.742,0.892,0.686l1.305-0.171   l-0.188,1.272c-0.064,0.435,0.235,0.839,0.67,0.903c0.039,0.006,0.078,0.008,0.117,0.008c0.388,0,0.728-0.283,0.785-0.679   l0.343-2.313c0.036-0.247-0.045-0.496-0.22-0.674S47.764,51.593,47.518,51.625z"></path><path d="M29.941,57.127c-0.176-0.176-0.424-0.259-0.669-0.226c-0.104,0.014-2.578,0.361-6.205,1.935   c-3.324,1.442-8.297,4.239-13.104,9.374c-0.198,0.211-0.266,0.514-0.176,0.789s0.323,0.48,0.607,0.535l4.258,0.809   c-2.131,1.238-5.447,3.58-7.982,7.268c-0.167,0.244-0.186,0.559-0.048,0.82s0.408,0.426,0.703,0.426h5.233   c-0.547,0.537-1.163,1.219-1.758,2.045c-2.168,3.008-3.006,6.488-2.424,10.061c0.027,0.168,0.112,0.326,0.233,0.445   c0.117,0.115,0.267,0.189,0.429,0.217c0.743,0.121,1.489,0.182,2.219,0.182c4.779,0,8.121-2.549,9.888-4.354v5.223   c0,0.297,0.163,0.566,0.425,0.705c0.116,0.061,0.243,0.09,0.37,0.09c0.158,0,0.315-0.047,0.45-0.139   c3.688-2.535,6.03-5.852,7.268-7.982l0.809,4.258c0.054,0.285,0.259,0.518,0.534,0.607s0.579,0.023,0.79-0.176   c5.136-4.807,7.932-9.779,9.374-13.104c1.572-3.629,1.92-6.102,1.935-6.205c0.033-0.246-0.051-0.494-0.226-0.67L29.941,57.127z    M39.678,76.362c-1.28,2.938-3.674,7.225-7.925,11.498l-0.965-5.082c-0.066-0.346-0.351-0.607-0.7-0.643   c-0.35-0.037-0.682,0.162-0.816,0.486c-0.021,0.053-2.027,4.82-6.537,8.469v-5.824c0-0.352-0.23-0.66-0.566-0.762   c-0.076-0.023-0.152-0.033-0.229-0.033c-0.263,0-0.514,0.131-0.664,0.357c-0.035,0.055-3.623,5.387-10.019,5.387   c-0.457,0-0.924-0.027-1.392-0.082c-0.347-2.959,0.39-5.734,2.191-8.258c1.456-2.039,3.1-3.141,3.114-3.152   c0.293-0.191,0.425-0.555,0.324-0.891c-0.101-0.338-0.41-0.566-0.762-0.566H8.911c3.64-4.498,8.416-6.518,8.468-6.539   c0.325-0.133,0.523-0.465,0.487-0.814s-0.297-0.635-0.643-0.701l-5.083-0.965c4.272-4.252,8.561-6.645,11.498-7.926   c2.646-1.154,4.668-1.622,5.47-1.778l12.349,12.349C41.3,71.696,40.833,73.716,39.678,76.362z"></path></g></svg>