<svg height='200' width='200'  fill="#8980fe" xmlns="http://www.w3.org/2000/svg" xmlns:xlink="http://www.w3.org/1999/xlink" version="1.1" x="0px" y="0px" viewBox="0 0 100 100" enable-background="new 0 0 100 100" xml:space="preserve"><path d="M35.688,8.321h36.336v43.428c0,0.828,0.672,1.5,1.5,1.5s1.5-0.672,1.5-1.5V6.821c0-0.829-0.672-1.5-1.5-1.5H35.688  c-0.829,0-1.5,0.671-1.5,1.5C34.188,7.649,34.86,8.321,35.688,8.321z M25.126,33.285h31.75c0.828,0,1.5-0.672,1.5-1.5  c0-0.829-0.672-1.5-1.5-1.5h-31.75c-0.829,0-1.5,0.671-1.5,1.5C23.626,32.613,24.297,33.285,25.126,33.285z M25.126,40.853h31.75  c0.828,0,1.5-0.672,1.5-1.5c0-0.829-0.672-1.5-1.5-1.5h-31.75c-0.829,0-1.5,0.671-1.5,1.5  C23.626,40.181,24.297,40.853,25.126,40.853z M25.126,48.42h31.75c0.828,0,1.5-0.672,1.5-1.5c0-0.829-0.672-1.5-1.5-1.5h-31.75  c-0.829,0-1.5,0.671-1.5,1.5C23.626,47.748,24.297,48.42,25.126,48.42z M47.626,52.987h-22.5c-0.829,0-1.5,0.672-1.5,1.5  s0.671,1.5,1.5,1.5h22.5c0.829,0,1.5-0.672,1.5-1.5S48.455,52.987,47.626,52.987z M41.418,60.554H25.126c-0.829,0-1.5,0.672-1.5,1.5  s0.671,1.5,1.5,1.5h16.292c0.829,0,1.5-0.672,1.5-1.5S42.247,60.554,41.418,60.554z M72.472,66.094l-10.39,12.245l-6.639-5.282  c-0.646-0.516-1.591-0.409-2.107,0.24c-0.516,0.647-0.408,1.592,0.24,2.107l7.775,6.188c0.275,0.22,0.605,0.326,0.933,0.326  c0.426,0,0.849-0.181,1.145-0.529l11.33-13.354c0.536-0.632,0.459-1.578-0.173-2.114C73.952,65.384,73.007,65.463,72.472,66.094z   M67.836,53.162V14.009c0-0.828-0.672-1.5-1.5-1.5H29.085c-0.357,0-0.703,0.128-0.974,0.359L15.526,23.619  C15.192,23.904,15,24.32,15,24.76v57.005c0,0.828,0.671,1.5,1.5,1.5h28.471c0.152,0,0.296-0.029,0.435-0.071  c3.461,6.804,10.515,11.485,18.658,11.485C75.608,94.679,85,85.286,85,73.741C85,63.486,77.584,54.946,67.836,53.162z   M43.126,73.741c0,2.279,0.378,4.468,1.055,6.523H18V25.451l11.638-9.942h35.198v37.334c-0.259-0.01-0.512-0.039-0.772-0.039  C52.519,52.804,43.126,62.196,43.126,73.741z M64.063,91.679c-9.891,0-17.938-8.047-17.938-17.938s8.047-17.938,17.938-17.938  S82,63.851,82,73.741S73.954,91.679,64.063,91.679z"></path></svg>