<svg height='200' width='200'  fill="#8980fe" xmlns:dc="http://purl.org/dc/elements/1.1/" xmlns:cc="http://creativecommons.org/ns#" xmlns:rdf="http://www.w3.org/1999/02/22-rdf-syntax-ns#" xmlns:svg="http://www.w3.org/2000/svg" xmlns="http://www.w3.org/2000/svg" xmlns:sodipodi="http://sodipodi.sourceforge.net/DTD/sodipodi-0.dtd" xmlns:inkscape="http://www.inkscape.org/namespaces/inkscape" version="1.1" x="0px" y="0px" viewBox="0 0 100 100"><g transform="translate(0,-952.36218)"><path style="text-indent:0;text-transform:none;direction:ltr;block-progression:tb;baseline-shift:baseline;color:#000000;enable-background:accumulate;" d="m 49.714749,957.50302 a 3.0000316,2.9955051 0 0 0 -1.656101,0.6864 l -4.468351,3.80641 -5.437013,-2.21521 a 3.0000316,2.9955051 0 0 0 -3.68717,1.18561 l -3.093474,4.992 -5.843227,-0.4368 a 3.0000316,2.9955051 0 0 0 -3.12472,2.27761 l -1.374877,5.67841 -5.718239,1.3728 a 3.0000316,2.9955051 0 0 0 -2.281046,3.15121 l 0.437461,5.83441 -4.9995526,3.0888 a 3.0000316,2.9955051 0 0 0 -1.1873938,3.68161 l 2.2185515,5.42881 -3.7809118,4.43041 a 3.0000316,2.9955051 0 0 0 0,3.9 l 3.7809118,4.4304 -2.2185515,5.4288 a 3.0000316,2.9955051 0 0 0 1.1873938,3.7128 l 4.9995526,3.0576 -0.437461,5.8344 a 3.0000316,2.9955051 0 0 0 2.281046,3.1513 l 5.718239,1.3728 1.374877,5.7096 a 3.0000316,2.9955051 0 0 0 3.12472,2.2776 l 5.874475,-0.4368 3.062226,4.9608 a 3.0000316,2.9955051 0 0 0 3.655923,1.2168 l 4.968305,-1.9344 a 3.0028629,2.9983321 0 1 0 -2.187304,-5.5848 l -2.656013,1.0296 -2.718506,-4.3992 a 3.0000316,2.9955051 0 0 0 -2.781002,-1.404 l -5.124541,0.3744 -1.218641,-4.992 a 3.0000316,2.9955051 0 0 0 -2.187305,-2.2153 l -5.030799,-1.2168 0.406213,-5.1168 a 3.0000316,2.9955051 0 0 0 -1.406124,-2.7768 l -4.374609,-2.6832 1.937327,-4.7424 a 3.0000316,2.9955051 0 0 0 -0.499955,-3.0888 l -3.312204,-3.9 3.312204,-3.9312 a 3.0000316,2.9955051 0 0 0 0.499955,-3.08881 l -1.937327,-4.74241 4.374609,-2.6832 a 3.0000316,2.9955051 0 0 0 1.406124,-2.77681 l -0.406213,-5.11681 5.030799,-1.2168 a 3.0000316,2.9955051 0 0 0 2.187305,-2.21521 l 1.218641,-4.992 5.124541,0.4056 a 3.0000316,2.9955051 0 0 0 2.781002,-1.43521 l 2.687259,-4.36801 4.780822,1.96561 a 3.0000316,2.9955051 0 0 0 3.062227,-0.4992 l 3.937147,-3.33841 3.937148,3.33841 a 3.0000316,2.9955051 0 0 0 3.062226,0.4992 l 4.780822,-1.96561 2.68726,4.36801 a 3.0000316,2.9955051 0 0 0 2.781001,1.43521 l 5.124542,-0.4056 1.218641,4.992 a 3.0000316,2.9955051 0 0 0 2.187304,2.21521 l 5.0308,1.2168 -0.406214,5.11681 a 3.0000316,2.9955051 0 0 0 1.406125,2.77681 l 4.374608,2.6832 -1.937326,4.74241 a 3.0000316,2.9955051 0 0 0 0.499955,3.08881 l 3.312204,3.9312 -3.312204,3.9 a 3.0000316,2.9955051 0 0 0 -0.499955,3.0888 l 1.937326,4.7424 -4.374608,2.6832 a 3.0000316,2.9955051 0 0 0 -1.406125,2.7768 l 0.406214,5.1168 -5.0308,1.2168 a 3.0000316,2.9955051 0 0 0 -2.187304,2.2153 l -1.218641,4.992 -5.124542,-0.3744 a 3.0000316,2.9955051 0 0 0 -2.781001,1.404 l -2.718507,4.368 -4.749575,-1.9344 a 3.0000316,2.9955051 0 0 0 -2.687259,0.1872 l -4.874564,2.9952 a 3.0000316,2.9955051 0 1 0 3.12472,5.0856 l 3.562181,-2.1528 5.718239,2.34 a 3.0000316,2.9955051 0 0 0 3.68717,-1.2168 l 3.062226,-4.9608 5.874475,0.4368 a 3.0000316,2.9955051 0 0 0 3.12472,-2.2776 l 1.374877,-5.7096 5.718238,-1.3728 a 3.0000316,2.9955051 0 0 0 2.281046,-3.1513 l -0.43746,-5.8344 4.999552,-3.0576 a 3.0000316,2.9955051 0 0 0 1.187394,-3.7128 l -2.218551,-5.4288 3.780911,-4.4304 a 3.0000316,2.9955051 0 0 0 0,-3.9 l -3.780911,-4.43041 2.218551,-5.42881 a 3.0000316,2.9955051 0 0 0 -1.187394,-3.68161 l -4.999552,-3.0888 0.43746,-5.83441 a 3.0000316,2.9955051 0 0 0 -2.281046,-3.15121 l -5.718238,-1.3728 -1.374877,-5.67841 a 3.0000316,2.9955051 0 0 0 -3.12472,-2.27761 l -5.843228,0.4368 -3.093473,-4.992 a 3.0000316,2.9955051 0 0 0 -3.68717,-1.18561 l -5.437014,2.21521 -4.46835,-3.80641 a 3.0000316,2.9955051 0 0 0 -2.218552,-0.6864 z m 0.281225,11.98082 c -18.188239,0 -32.997048,14.78646 -32.997048,32.94726 0,18.1608 14.808816,32.9473 32.997048,32.9473 18.188232,0 32.997048,-14.7865 32.997048,-32.9473 0,-18.1608 -14.808809,-32.94726 -32.997048,-32.94726 z m 0,5.99041 c 14.945889,0 26.997585,12.03351 26.997585,26.95685 0,14.9234 -12.051689,26.9569 -26.997585,26.9569 -14.945896,0 -26.997584,-12.0335 -26.997584,-26.9569 0,-14.92334 12.051695,-26.95685 26.997584,-26.95685 z m -11.998926,7.98722 c -4.382348,0 -7.999285,3.61147 -7.999285,7.98721 0,4.37574 3.616915,7.98722 7.999285,7.98722 4.38237,0 7.999284,-3.61148 7.999284,-7.98722 0,-4.37574 -3.616936,-7.98721 -7.999284,-7.98721 z m 24.716539,0.9672 a 3.0000316,2.9955051 0 0 0 -1.999821,1.0608 l -25.997675,29.95203 a 3.0028792,2.9983484 0 0 0 4.562092,3.9 l 25.997674,-29.95202 a 3.0000316,2.9955051 0 0 0 -2.56227,-4.96081 z m -24.716539,5.02321 c 1.140008,0 1.999821,0.85851 1.999821,1.9968 0,1.13828 -0.859835,1.99681 -1.999821,1.99681 -1.139986,0 -1.999821,-0.85853 -1.999821,-1.99681 0,-1.13829 0.859813,-1.9968 1.999821,-1.9968 z m 23.997853,15.97442 c -4.38237,0 -7.999284,3.6115 -7.999284,7.9872 0,4.3757 3.616914,7.9872 7.999284,7.9872 4.38237,0 7.999284,-3.6115 7.999284,-7.9872 0,-4.3757 -3.616914,-7.9872 -7.999284,-7.9872 z m 0,5.9904 c 1.139986,0 1.999821,0.8585 1.999821,1.9968 0,1.1383 -0.859835,1.9968 -1.999821,1.9968 -1.139986,0 -1.999821,-0.8585 -1.999821,-1.9968 0,-1.1383 0.859835,-1.9968 1.999821,-1.9968 z" fill="#8980fe" fill-opacity="1" stroke="none" marker="none" visibility="visible" display="inline" overflow="visible"></path></g></svg>