<svg height='200' width='200'  fill="#8980fe" xmlns:dc="http://purl.org/dc/elements/1.1/" xmlns:cc="http://creativecommons.org/ns#" xmlns:rdf="http://www.w3.org/1999/02/22-rdf-syntax-ns#" xmlns:svg="http://www.w3.org/2000/svg" xmlns="http://www.w3.org/2000/svg" xmlns:sodipodi="http://sodipodi.sourceforge.net/DTD/sodipodi-0.dtd" xmlns:inkscape="http://www.inkscape.org/namespaces/inkscape" viewBox="0 0 36 36.000001" version="1.1" x="0px" y="0px"><g transform="translate(0,-1016.3622)"><path style="color:#000000;font-style:normal;font-variant:normal;font-weight:normal;font-stretch:normal;font-size:medium;line-height:normal;font-family:sans-serif;text-indent:0;text-align:start;text-decoration:none;text-decoration-line:none;text-decoration-style:solid;text-decoration-color:#000000;letter-spacing:normal;word-spacing:normal;text-transform:none;direction:ltr;block-progression:tb;writing-mode:lr-tb;baseline-shift:baseline;text-anchor:start;white-space:normal;clip-rule:nonzero;display:inline;overflow:visible;visibility:visible;opacity:1;isolation:auto;mix-blend-mode:normal;color-interpolation:sRGB;color-interpolation-filters:linearRGB;solid-color:#000000;solid-opacity:1;fill:#8980fe;fill-opacity:1;fill-rule:nonzero;stroke:none;stroke-width:1;stroke-linecap:round;stroke-linejoin:round;stroke-miterlimit:4;stroke-dasharray:none;stroke-dashoffset:0;stroke-opacity:1;color-rendering:auto;image-rendering:auto;shape-rendering:auto;text-rendering:auto;enable-background:accumulate" d="M 16 1.9980469 L 16 2 C 7.1691445 2 0 9.1686 0 18 C 0 26.8313 7.1691484 34.001953 16 34.001953 C 18.20765 34.001953 20.313951 33.553941 22.228516 32.744141 C 22.394593 32.673655 22.556699 32.598719 22.71875 32.523438 C 24.081862 33.453793 25.727829 34 27.5 34 C 27.793028 34 28.081726 33.984128 28.367188 33.955078 C 29.509048 33.838837 30.585373 33.496552 31.548828 32.972656 C 32.753139 32.317993 33.782508 31.378418 34.546875 30.248047 C 34.699747 30.021917 34.841681 29.789691 34.972656 29.548828 C 35.103633 29.308021 35.224384 29.058797 35.332031 28.804688 C 35.439677 28.550524 35.534305 28.291422 35.617188 28.025391 C 35.700073 27.759411 35.769482 27.487355 35.826172 27.210938 C 35.939418 26.658627 35.999872 26.087339 36 25.501953 C 36 25.501953 36 25.5 36 25.5 C 35.999932 25.207666 35.984075 24.915664 35.955078 24.630859 C 35.926082 24.346042 35.882672 24.064921 35.826172 23.789062 C 35.826172 23.789062 35.826172 23.787109 35.826172 23.787109 C 35.76961 23.51127 35.699828 23.242016 35.617188 22.976562 C 35.617188 22.976562 35.617188 22.974609 35.617188 22.974609 C 35.534486 22.709168 35.439388 22.448942 35.332031 22.195312 C 35.332031 22.195312 35.332031 22.193359 35.332031 22.193359 C 35.116957 21.685553 34.852223 21.203816 34.546875 20.751953 C 34.546875 20.751953 34.546875 20.75 34.546875 20.75 C 34.394295 20.524302 34.229608 20.307252 34.056641 20.097656 C 34.056641 20.097656 34.056641 20.095703 34.056641 20.095703 C 33.883611 19.88611 33.699807 19.682293 33.507812 19.490234 C 33.053491 19.035913 32.543132 18.641557 31.996094 18.298828 C 31.997965 18.198695 32 18.098664 32 17.998047 C 32 9.1666469 24.830584 1.9980469 16 1.9980469 z M 15.5 3.0507812 L 15.5 9.75 L 9.125 9.75 C 9.6329796 7.8085657 10.28803 5.8513979 11.091797 3.8613281 C 12.480154 3.3844614 13.959525 3.1023094 15.5 3.0507812 z M 16.5 3.0507812 C 17.991676 3.1006788 19.425308 3.3686757 20.775391 3.8183594 C 21.586843 5.822954 22.245605 7.7940641 22.755859 9.75 L 16.5 9.75 L 16.5 3.0507812 z M 22.03125 4.3007812 C 24.68366 5.4587999 26.935052 7.3555052 28.515625 9.75 L 23.787109 9.75 C 23.328118 7.9456713 22.738401 6.1321859 22.03125 4.3007812 z M 9.8261719 4.3652344 C 9.1305747 6.1745242 8.5518192 7.9662744 8.0996094 9.75 L 3.484375 9.75 C 5.0364453 7.3987048 7.236013 5.5285983 9.8261719 4.3652344 z M 2.9433594 10.75 L 7.8515625 10.75 C 7.3398255 13.003837 7.0383336 15.247965 6.9609375 17.5 L 1.0507812 17.5 C 1.1329383 15.0454 1.8208376 12.7677 2.9433594 10.75 z M 8.8710938 10.75 L 15.5 10.75 L 15.5 17.5 L 7.9472656 17.5 C 8.0271148 15.251591 8.3406802 13.0103 8.8710938 10.75 z M 16.5 10.75 L 23.009766 10.75 C 23.538529 13.010605 23.848051 15.252714 23.927734 17.5 L 16.5 17.5 L 16.5 10.75 z M 24.037109 10.75 L 29.056641 10.75 C 30.180693 12.770519 30.895132 15.045917 30.982422 17.5 L 30.349609 17.5 C 29.457347 17.181264 28.500699 17 27.5 17 C 26.601755 17 25.737057 17.141225 24.923828 17.400391 C 24.840793 15.180901 24.543011 12.96997 24.037109 10.75 z M 27.5 18.001953 C 29.832772 18.001953 31.91445 19.062843 33.289062 20.728516 C 33.441465 20.91326 33.586296 21.105676 33.720703 21.304688 C 33.855051 21.503702 33.980588 21.711793 34.095703 21.923828 C 34.21076 22.135869 34.317523 22.356261 34.412109 22.580078 C 34.506637 22.803903 34.591243 23.035175 34.664062 23.269531 C 34.736822 23.503901 34.797845 23.744624 34.847656 23.988281 C 34.897407 24.231957 34.935376 24.4807 34.960938 24.732422 C 34.986436 24.984171 34.999933 25.2434 35 25.501953 C 34.999936 25.760536 34.986434 26.01776 34.960938 26.269531 C 34.935378 26.521277 34.897405 26.769979 34.847656 27.013672 C 34.697972 27.745943 34.441416 28.440998 34.095703 29.078125 C 33.865206 29.502689 33.59418 29.903584 33.289062 30.273438 C 32.067211 31.75395 30.286354 32.756487 28.267578 32.960938 C 28.015167 32.98649 27.759255 33 27.5 33 C 25.166708 33 23.085541 31.937255 21.710938 30.271484 C 21.558203 30.086344 21.413956 29.894785 21.279297 29.695312 C 21.144638 29.495896 21.019632 29.288672 20.904297 29.076172 C 20.788961 28.863616 20.682655 28.646267 20.587891 28.421875 C 20.398362 27.973199 20.252101 27.500263 20.152344 27.011719 C 20.102595 26.768026 20.064622 26.521277 20.039062 26.269531 C 20.039062 26.269531 20.039062 26.267578 20.039062 26.267578 C 20.013566 26.015807 20.000064 25.760536 20 25.501953 C 20 25.501953 20 25.5 20 25.5 C 20.000067 25.241447 20.013564 24.982218 20.039062 24.730469 C 20.064561 24.478709 20.102653 24.231993 20.152344 23.988281 C 20.152344 23.988281 20.152344 23.986328 20.152344 23.986328 C 20.202095 23.742635 20.263235 23.503935 20.335938 23.269531 C 20.335938 23.269531 20.335938 23.267578 20.335938 23.267578 C 20.408701 23.033188 20.493415 22.803936 20.587891 22.580078 C 20.587891 22.580078 20.587891 22.578125 20.587891 22.578125 C 20.682427 22.354276 20.789287 22.135901 20.904297 21.923828 C 20.904297 21.923828 20.904297 21.921875 20.904297 21.921875 C 21.019367 21.70981 21.144991 21.503731 21.279297 21.304688 C 21.279297 21.304688 21.279297 21.302734 21.279297 21.302734 C 21.413664 21.103695 21.558572 20.913288 21.710938 20.728516 C 21.710938 20.728516 21.710938 20.726562 21.710938 20.726562 C 21.863366 20.541792 22.026123 20.364567 22.195312 20.195312 C 23.551801 18.838763 25.425962 18.001953 27.5 18.001953 z M 1.0507812 18.5 L 6.9472656 18.5 C 6.9378335 20.733609 7.1486217 22.978015 7.6132812 25.251953 L 2.9433594 25.251953 C 1.8207883 23.234153 1.1328896 20.9548 1.0507812 18.5 z M 7.9316406 18.5 L 15.5 18.5 L 15.5 25.251953 L 8.6308594 25.251953 C 8.1473781 22.974588 7.9223587 20.732173 7.9316406 18.5 z M 16.5 18.5 L 22.6875 18.5 C 22.259706 18.794963 21.858514 19.125861 21.492188 19.492188 C 21.300193 19.684246 21.116389 19.88611 20.943359 20.095703 C 20.943359 20.095703 20.943359 20.097656 20.943359 20.097656 C 20.770392 20.307252 20.605705 20.524302 20.453125 20.75 C 20.453125 20.75 20.453125 20.751953 20.453125 20.751953 C 20.147777 21.203816 19.883043 21.685553 19.667969 22.193359 C 19.667969 22.193359 19.667969 22.195312 19.667969 22.195312 C 19.560612 22.448942 19.465514 22.709168 19.382812 22.974609 C 19.382812 22.974609 19.382812 22.976562 19.382812 22.976562 C 19.300172 23.242016 19.23039 23.51127 19.173828 23.787109 C 19.173828 23.787109 19.173828 23.789062 19.173828 23.789062 C 19.117328 24.064921 19.073918 24.346042 19.044922 24.630859 C 19.044922 24.630859 19.044922 24.632812 19.044922 24.632812 C 19.024266 24.836165 19.019685 25.044657 19.013672 25.251953 L 16.5 25.251953 L 16.5 18.5 z M 27.011719 21 L 27.011719 22 L 25.511719 22 A 0.50005 0.50005 0 0 0 25.011719 22.5 L 25.011719 25.5 L 25.011719 28.5 A 0.50005 0.50005 0 0 0 25.511719 29 L 27.011719 29 L 27.011719 30 L 28.011719 30 L 28.011719 29 L 28.501953 29 L 28.927734 29 L 29.355469 29 C 30.379447 29 31.136719 28.0602 31.136719 27 C 31.136719 26.185787 30.688645 25.445574 30.017578 25.144531 C 30.199404 24.811765 30.300781 24.421531 30.300781 24 C 30.300781 23.4886 30.158566 23.017838 29.894531 22.648438 C 29.630497 22.278937 29.213213 22 28.728516 22 L 28.371094 22 L 28.013672 22 L 28.011719 22 L 28.011719 21 L 27.011719 21 z M 26.011719 23 L 27.011719 23 L 27.011719 25 L 26.011719 25 L 26.011719 23 z M 28.011719 23 L 28.013672 23 L 28.371094 23 L 28.728516 23 C 28.837748 23 28.95656 23.057969 29.080078 23.230469 C 29.203596 23.403269 29.300781 23.6804 29.300781 24 C 29.300781 24.3196 29.203601 24.598684 29.080078 24.771484 C 28.95656 24.944284 28.837748 25 28.728516 25 L 28.501953 25 L 28.011719 25 L 28.011719 23 z M 26.011719 26 L 27.011719 26 L 27.011719 28 L 26.011719 28 L 26.011719 26 z M 28.011719 26 L 28.013672 26 L 28.501953 26 L 28.728516 26 L 28.927734 26 L 29.355469 26 C 29.75111 26 30.136719 26.3982 30.136719 27 C 30.136719 27.6018 29.75111 28 29.355469 28 L 28.927734 28 L 28.501953 28 L 28.011719 28 L 28.011719 26 z M 3.484375 26.251953 L 7.8398438 26.251953 C 8.2455089 27.97527 8.7940876 29.718755 9.4941406 31.486328 C 7.0472275 30.314853 4.9701632 28.502836 3.484375 26.251953 z M 8.8574219 26.251953 L 15.5 26.251953 L 15.5 32.951172 C 13.845797 32.89584 12.263033 32.570433 10.787109 32.027344 C 9.9554429 30.066521 9.3201544 28.145996 8.8574219 26.251953 z M 16.5 26.251953 L 19.037109 26.251953 C 19.065748 26.576591 19.109608 26.897732 19.173828 27.210938 C 19.173828 27.210938 19.173828 27.212891 19.173828 27.212891 C 19.230518 27.489309 19.299927 27.759411 19.382812 28.025391 C 19.465695 28.291422 19.560323 28.550524 19.667969 28.804688 C 19.667969 28.804688 19.667969 28.806641 19.667969 28.806641 C 19.775616 29.06075 19.896367 29.308021 20.027344 29.548828 C 20.158319 29.789691 20.300253 30.021917 20.453125 30.248047 C 20.453125 30.248047 20.453125 30.25 20.453125 30.25 C 20.723885 30.650409 21.033968 31.021172 21.367188 31.369141 C 21.268267 31.614353 21.169481 31.8592 21.064453 32.105469 C 19.630314 32.61051 18.09698 32.897639 16.5 32.951172 L 16.5 26.251953 z " transform="translate(0,1016.3622)"></path></g></svg>