<?xml version="1.0" encoding="utf-8"?>
<!-- Generator: Adobe Illustrator 22.1.0, SVG Export Plug-In . SVG Version: 6.00 Build 0)  -->
<svg version="1.1" id="图层_1" xmlns="http://www.w3.org/2000/svg" xmlns:xlink="http://www.w3.org/1999/xlink" x="0px" y="0px"
	 viewBox="0 0 72 72" style="enable-background:new 0 0 72 72;" xml:space="preserve">
<style type="text/css">
	.st0{fill:#FFFFFF;}
	.st1{opacity:0.3;fill:#A9A2FB;enable-background:new    ;}
	.st2{fill:none;stroke:#8980FE;stroke-width:2;stroke-linecap:round;stroke-linejoin:round;stroke-miterlimit:10;}
	.st3{fill:none;}
</style>
<g transform="translate(9367 -1721)">
	<g transform="translate(12 3)">
		<path class="st0" d="M-9326.5,1761.5l-16.5-7.5l-16.5,7.5v16.5l-7.5,9h48l-7.5-9V1761.5z"/>
		<path class="st0" d="M-9326.5,1730l7.5-9h-48l7.5,9v16.5l16.5,7.5l16.5-7.5V1730z"/>
		<path class="st1" d="M-9355,1778l12-15l12,15H-9355z"/>
		<path class="st1" d="M-9343,1721h24l-7.5,9h-16.5V1721z"/>
		<path class="st1" d="M-9343,1787h24l-7.5-9h-16.5V1787z"/>
		<path class="st2" d="M-9359.5,1778h33v-16.5l-33-15V1730h33v16.5l-33,15V1778z"/>
		<path class="st2" d="M-9326.5,1730h-33l-7.5-9h48L-9326.5,1730z"/>
		<path class="st2" d="M-9319,1787h-48l7.5-9h33L-9319,1787z"/>
		<path class="st2" d="M-9355,1778l12-15l12,15H-9355z"/>
	</g>
	<rect x="-9367" y="1721" class="st3" width="72" height="72"/>
</g>
</svg>
