<?xml version="1.0" encoding="utf-8"?>
<!-- Generator: Adobe Illustrator 22.1.0, SVG Export Plug-In . SVG Version: 6.00 Build 0)  -->
<svg version="1.1" id="图层_1" xmlns="http://www.w3.org/2000/svg" xmlns:xlink="http://www.w3.org/1999/xlink" x="0px" y="0px"
	 viewBox="0 0 96 96" style="enable-background:new 0 0 96 96;" xml:space="preserve">
<style type="text/css">
	.st0{fill:#FFFFFF;}
	.st1{fill:#A9A2FB;}
	.st2{fill:none;stroke:#8980FE;stroke-width:2;stroke-linecap:round;stroke-linejoin:round;}
	.st3{fill:none;}
</style>
<g transform="translate(-1189 5385)">
	<g transform="translate(2 2)">
		<path class="st0" d="M1249-5373l4,16v28l-20-20v-20l8-16h-36l8,16v20l-24,24l17,32h34l13-24.5v16.5l12,8l12-8v-56l4-16H1249z"/>
		<path class="st1" d="M1265-5373v80l12-8v-56l4-16H1265z"/>
		<path class="st1" d="M1240-5293l17-32l-24-24v-20l8-16h-18v72h-27.6l10.6,20H1240z"/>
		<path class="st2" d="M1233-5349l24,24l-17,32h-34l-17-32l24-24v-20l-8-16h36l-8,16V-5349z"/>
		<path class="st2" d="M1253-5341v-16l-4-16h32l-4,16v56l-12,8l-12-8"/>
		<line class="st2" x1="1205" y1="-5313" x2="1241" y2="-5313"/>
		<line class="st2" x1="1265" y1="-5313" x2="1277" y2="-5313"/>
		<line class="st2" x1="1265" y1="-5325" x2="1277" y2="-5325"/>
		<line class="st2" x1="1265" y1="-5337" x2="1277" y2="-5337"/>
	</g>
	<path class="st3" d="M1189-5385h96v96h-96V-5385z"/>
</g>
</svg>
