<?xml version="1.0" encoding="UTF-8"?>
<svg width="170px" height="191px" viewBox="0 0 170 191" version="1.1" xmlns="http://www.w3.org/2000/svg" xmlns:xlink="http://www.w3.org/1999/xlink">
    <!-- Generator: Sketch 48.2 (47327) - http://www.bohemiancoding.com/sketch -->
    <title>group_2</title>
    <desc>Created with Sketch.</desc>
    <defs>
        <path d="M95.036025,2.700341 L160.036025,40.4086927 C166.203737,43.9867581 170,50.5779084 170,57.7083517 L170,133.291648 C170,140.422092 166.203737,147.013242 160.036025,150.591307 L95.036025,188.299659 C88.8297195,191.900114 81.1702805,191.900114 74.963975,188.299659 L9.96397497,150.591307 C3.79626305,147.013242 3.87945958e-14,140.422092 2.84217094e-14,133.291648 L1.42108547e-14,57.7083517 C7.00452135e-15,50.5779084 3.79626305,43.9867581 9.96397497,40.4086927 L74.963975,2.700341 C81.1702805,-0.900113666 88.8297195,-0.900113666 95.036025,2.700341 Z" id="path-1"></path>
        <linearGradient x1="100%" y1="0%" x2="0%" y2="100%" id="linearGradient-2">
            <stop stop-color="#4265AB" offset="0%"></stop>
            <stop stop-color="#1F3572" offset="100%"></stop>
        </linearGradient>
        <path d="M109.369092,94.2030613 C112.899453,99.2650075 115,105.448531 115,112.152216 C115,129.187988 101.569101,143 85.0024848,143 C77.5584861,143 70.7657318,140.191977 65.5223218,135.572854 L65.5291428,135.608749 L61.6080348,142.237053 L55.1478861,142.237053 L55.1478861,115.20694 L61.6080348,115.20694 L61.7090508,115.20694 C61.7399077,115.649436 61.8068186,116.086711 61.8610619,116.52627 L62.4557893,119.614931 C63.5192177,123.63525 65.6402278,127.486205 68.8405821,130.701807 C77.991458,139.893717 92.3110376,140.410615 100.830807,131.851449 C108.692512,123.954721 108.840301,111.099167 101.625943,101.927816 C101.022121,101.164869 100.391664,100.417912 99.6858518,99.713051 C97.6596861,97.6797229 95.372698,96.092154 92.9603331,94.9118382 C87.5551676,92.2699148 81.4977834,91.780428 76.0864466,93.4916739 C73.6731073,92.3139686 71.3851447,90.7277051 69.3599535,88.6963349 C68.792835,88.1220037 68.2601464,87.532009 67.7602636,86.9263506 C72.6392366,83.3916033 78.5767659,81.2979051 85.0024848,81.2979051 C91.853705,81.2979051 98.1494998,83.6885586 103.203221,87.66776 C105.558419,89.5255255 107.637853,91.7187527 109.369092,94.2030613 Z M66.1802897,103.855154 C64.0712974,102.105728 62.2133835,100.059673 60.6315581,97.7959597 C57.1005471,92.731403 55,86.5465741 55,79.8461526 C55,62.8071172 68.4299246,49 85.0023874,49 C92.4691227,49 99.2794168,51.8243388 104.529973,56.464021 L108.39294,49.5286457 L114.852114,49.5286457 L114.852114,76.5649594 L114.819633,76.5649594 C114.828078,76.6426246 114.843344,76.7088685 114.852114,76.7868601 L107.333409,76.7868601 C106.942013,71.2386904 104.564727,65.6738782 100.203826,61.2932977 C91.0529505,52.1026936 76.7317469,51.5864482 68.2139259,60.1436564 C60.2281439,68.1679766 60.1839698,81.3279923 67.7601662,90.519249 C68.2600489,91.1239283 68.7927376,91.7149021 69.3598561,92.2833594 C71.3850473,94.3166875 73.6730098,95.9042564 76.086674,97.0806563 C81.4879417,99.7245377 87.5453259,100.214024 92.9602357,98.5027786 C95.3726005,99.6863577 97.6599135,101.268053 99.6860791,103.302686 C100.391892,104.010158 101.022348,104.755157 101.625845,105.521693 C96.8660775,108.784286 91.1520176,110.695242 85.0023874,110.695242 C77.869232,110.695242 71.3275559,108.1287 66.1802897,103.855154 Z" id="path-3"></path>
        <filter x="-5.8%" y="-2.7%" width="111.7%" height="107.4%" filterUnits="objectBoundingBox" id="filter-4">
            <feOffset dx="0" dy="1" in="SourceAlpha" result="shadowOffsetOuter1"></feOffset>
            <feGaussianBlur stdDeviation="1" in="shadowOffsetOuter1" result="shadowBlurOuter1"></feGaussianBlur>
            <feColorMatrix values="0 0 0 0 0.121568627   0 0 0 0 0.207843137   0 0 0 0 0.447058824  0 0 0 0.4 0" type="matrix" in="shadowBlurOuter1"></feColorMatrix>
        </filter>
    </defs>
    <g id="SkillChain---Landing-Redesign---OK" stroke="none" stroke-width="1" fill="none" fill-rule="evenodd" transform="translate(-635.000000, -114.000000)">
        <g id="group_2" transform="translate(635.000000, 114.000000)">
            <g id="Polygon-Copy-6">
                <use fill="#FFFFFF" fill-rule="evenodd" xlink:href="#path-1"></use>
                <path stroke="#E4E6EE" stroke-width="8" d="M93.02882,6.1602728 C88.0637756,3.27990907 81.9362244,3.27990907 76.97118,6.1602728 L11.97118,43.8686245 C7.03701044,46.7310769 4,52.0039971 4,57.7083517 L4,133.291648 C4,138.996003 7.03701044,144.268923 11.97118,147.131375 L76.97118,184.839727 C81.9362244,187.720091 88.0637756,187.720091 93.02882,184.839727 L158.02882,147.131375 C162.96299,144.268923 166,138.996003 166,133.291648 L166,57.7083517 C166,52.0039971 162.96299,46.7310769 158.02882,43.8686245 L93.02882,6.1602728 Z"></path>
            </g>
            <g id="Combined-Shape" fill-rule="nonzero">
                <use fill="black" fill-opacity="1" filter="url(#filter-4)" xlink:href="#path-3"></use>
                <use fill="url(#linearGradient-2)" fill-rule="evenodd" xlink:href="#path-3"></use>
            </g>
        </g>
    </g>
</svg>